<?xml version="1.0" encoding="UTF-8"?>
<!DOCTYPE svg PUBLIC "-//W3C//DTD SVG 1.1//EN" "http://www.w3.org/Graphics/SVG/1.1/DTD/svg11.dtd">
<svg xmlns="http://www.w3.org/2000/svg" version="1.1" width="512px" height="512px" style="shape-rendering:geometricPrecision; text-rendering:geometricPrecision; image-rendering:optimizeQuality; fill-rule:evenodd; clip-rule:evenodd" xmlns:xlink="http://www.w3.org/1999/xlink">
<g><path style="opacity:1" fill="white" d="M -0.5,-0.5 C 4.5,-0.5 9.5,-0.5 14.5,-0.5C 14.5,4.5 14.5,9.5 14.5,14.5C 9.5,14.5 4.5,14.5 -0.5,14.5C -0.5,9.5 -0.5,4.5 -0.5,-0.5 Z"/></g>
<g><path style="opacity:1" fill="#dddddd" d="M 14.5,-0.5 C 19.5,-0.5 24.5,-0.5 29.5,-0.5C 29.5,4.5 29.5,9.5 29.5,14.5C 24.5,14.5 19.5,14.5 14.5,14.5C 14.5,9.5 14.5,4.5 14.5,-0.5 Z"/></g>
<g><path style="opacity:1" fill="#dddddd" d="M 104.5,-0.5 C 109.5,-0.5 114.5,-0.5 119.5,-0.5C 119.5,4.5 119.5,9.5 119.5,14.5C 114.5,14.5 109.5,14.5 104.5,14.5C 104.5,9.5 104.5,4.5 104.5,-0.5 Z"/></g>
<g><path style="opacity:1" fill="#fefefe" d="M 119.5,-0.5 C 124.5,-0.5 129.5,-0.5 134.5,-0.5C 134.5,4.5 134.5,9.5 134.5,14.5C 129.5,14.5 124.5,14.5 119.5,14.5C 119.5,9.5 119.5,4.5 119.5,-0.5 Z"/></g>
<g><path style="opacity:1" fill="#dddddd" d="M 134.5,-0.5 C 139.5,-0.5 144.5,-0.5 149.5,-0.5C 149.5,4.5 149.5,9.5 149.5,14.5C 144.5,14.5 139.5,14.5 134.5,14.5C 134.5,9.5 134.5,4.5 134.5,-0.5 Z"/></g>
<g><path style="opacity:1" fill="#dddddd" d="M 464.5,-0.5 C 469.5,-0.5 474.5,-0.5 479.5,-0.5C 479.5,4.5 479.5,9.5 479.5,14.5C 474.5,14.5 469.5,14.5 464.5,14.5C 464.5,9.5 464.5,4.5 464.5,-0.5 Z"/></g>
<g><path style="opacity:1" fill="#fefefe" d="M 479.5,-0.5 C 484.5,-0.5 489.5,-0.5 494.5,-0.5C 494.5,4.5 494.5,9.5 494.5,14.5C 489.5,14.5 484.5,14.5 479.5,14.5C 479.5,9.5 479.5,4.5 479.5,-0.5 Z"/></g>
<g><path style="opacity:1" fill="#dddddd" d="M 494.5,-0.5 C 499.5,-0.5 504.5,-0.5 509.5,-0.5C 509.5,4.5 509.5,9.5 509.5,14.5C 504.5,14.5 499.5,14.5 494.5,14.5C 494.5,9.5 494.5,4.5 494.5,-0.5 Z"/></g>
<g><path style="opacity:1" fill="#dddddd" d="M -0.5,14.5 C 4.5,14.5 9.5,14.5 14.5,14.5C 14.5,19.5 14.5,24.5 14.5,29.5C 9.5,29.5 4.5,29.5 -0.5,29.5C -0.5,24.5 -0.5,19.5 -0.5,14.5 Z"/></g>
<g><path style="opacity:1" fill="#dddddd" d="M 119.5,14.5 C 124.5,14.5 129.5,14.5 134.5,14.5C 134.5,19.5 134.5,24.5 134.5,29.5C 129.5,29.5 124.5,29.5 119.5,29.5C 119.5,24.5 119.5,19.5 119.5,14.5 Z"/></g>
<g><path style="opacity:1" fill="#dddddd" d="M 479.5,14.5 C 484.5,14.5 489.5,14.5 494.5,14.5C 494.5,19.5 494.5,24.5 494.5,29.5C 489.5,29.5 484.5,29.5 479.5,29.5C 479.5,24.5 479.5,19.5 479.5,14.5 Z"/></g>
<g><path style="opacity:1" fill="#fefefe" d="M 29.5,-0.5 C 34.5,-0.5 39.5,-0.5 44.5,-0.5C 44.5,4.5 44.5,9.5 44.5,14.5C 49.5,14.5 54.5,14.5 59.5,14.5C 59.5,9.5 59.5,4.5 59.5,-0.5C 64.5,-0.5 69.5,-0.5 74.5,-0.5C 74.1734,4.21369 74.5067,8.88035 75.5,13.5C 80.1001,14.4435 84.7668,14.7768 89.5,14.5C 89.5,9.5 89.5,4.5 89.5,-0.5C 94.5,-0.5 99.5,-0.5 104.5,-0.5C 104.5,4.5 104.5,9.5 104.5,14.5C 109.5,14.5 114.5,14.5 119.5,14.5C 119.5,19.5 119.5,24.5 119.5,29.5C 114.5,29.5 109.5,29.5 104.5,29.5C 104.5,34.5 104.5,39.5 104.5,44.5C 99.5,44.5 94.5,44.5 89.5,44.5C 89.5,49.5 89.5,54.5 89.5,59.5C 84.5,59.5 79.5,59.5 74.5,59.5C 74.5,54.5 74.5,49.5 74.5,44.5C 79.1785,44.6658 83.8452,44.4992 88.5,44C 89.4692,39.2633 89.8025,34.43 89.5,29.5C 84.5,29.5 79.5,29.5 74.5,29.5C 74.6658,24.8215 74.4992,20.1548 74,15.5C 69.3333,14.1667 64.6667,14.1667 60,15.5C 59.5008,20.1548 59.3342,24.8215 59.5,29.5C 54.5,29.5 49.5,29.5 44.5,29.5C 44.5,34.5 44.5,39.5 44.5,44.5C 39.5,44.5 34.5,44.5 29.5,44.5C 29.5,49.5 29.5,54.5 29.5,59.5C 24.5,59.5 19.5,59.5 14.5,59.5C 14.5,54.5 14.5,49.5 14.5,44.5C 9.5,44.5 4.5,44.5 -0.5,44.5C -0.5,39.5 -0.5,34.5 -0.5,29.5C 4.5,29.5 9.5,29.5 14.5,29.5C 14.5,24.5 14.5,19.5 14.5,14.5C 19.5,14.5 24.5,14.5 29.5,14.5C 29.5,9.5 29.5,4.5 29.5,-0.5 Z"/></g>
<g><path style="opacity:1" fill="#dddddd" d="M 89.5,29.5 C 89.3342,24.8215 89.5008,20.1548 90,15.5C 94.4132,14.3676 98.9132,14.2009 103.5,15C 104.632,19.4132 104.799,23.9132 104,28.5C 99.2633,29.4692 94.43,29.8025 89.5,29.5 Z"/></g>
<g><path style="opacity:1" fill="#dddddd" d="M 74.5,29.5 C 69.5,29.5 64.5,29.5 59.5,29.5C 59.3342,24.8215 59.5008,20.1548 60,15.5C 64.6667,14.1667 69.3333,14.1667 74,15.5C 74.4992,20.1548 74.6658,24.8215 74.5,29.5 Z"/></g>
<g><path style="opacity:1" fill="#dddddd" d="M 29.5,29.5 C 29.3342,24.8215 29.5008,20.1548 30,15.5C 34.4132,14.3676 38.9132,14.2009 43.5,15C 44.6324,19.4132 44.7991,23.9132 44,28.5C 39.2633,29.4692 34.43,29.8025 29.5,29.5 Z"/></g>
<g><path style="opacity:1" fill="#dddddd" d="M 74.5,-0.5 C 79.5,-0.5 84.5,-0.5 89.5,-0.5C 89.5,4.5 89.5,9.5 89.5,14.5C 84.7668,14.7768 80.1001,14.4435 75.5,13.5C 74.5067,8.88035 74.1734,4.21369 74.5,-0.5 Z"/></g>
<g><path style="opacity:1" fill="#dddddd" d="M 44.5,-0.5 C 49.5,-0.5 54.5,-0.5 59.5,-0.5C 59.5,4.5 59.5,9.5 59.5,14.5C 54.5,14.5 49.5,14.5 44.5,14.5C 44.5,9.5 44.5,4.5 44.5,-0.5 Z"/></g>
<g><path style="opacity:1" fill="#dddddd" d="M 29.5,29.5 C 29.5,34.5 29.5,39.5 29.5,44.5C 24.8215,44.6658 20.1548,44.4992 15.5,44C 14.1667,39.3333 14.1667,34.6667 15.5,30C 20.1548,29.5008 24.8215,29.3342 29.5,29.5 Z"/></g>
<g><path style="opacity:1" fill="#dddddd" d="M 59.5,29.5 C 59.5,34.5 59.5,39.5 59.5,44.5C 54.5,44.5 49.5,44.5 44.5,44.5C 44.5,39.5 44.5,34.5 44.5,29.5C 49.5,29.5 54.5,29.5 59.5,29.5 Z"/></g>
<g><path style="opacity:1" fill="#fefefe" d="M 59.5,29.5 C 64.5,29.5 69.5,29.5 74.5,29.5C 74.5,34.5 74.5,39.5 74.5,44.5C 69.5,44.5 64.5,44.5 59.5,44.5C 59.5,39.5 59.5,34.5 59.5,29.5 Z"/></g>
<g><path style="opacity:1" fill="#dddddd" d="M 74.5,29.5 C 79.5,29.5 84.5,29.5 89.5,29.5C 89.8025,34.43 89.4692,39.2633 88.5,44C 83.8452,44.4992 79.1785,44.6658 74.5,44.5C 74.5,39.5 74.5,34.5 74.5,29.5 Z"/></g>
<g><path style="opacity:1" fill="#dddddd" d="M 119.5,29.5 C 119.5,34.5 119.5,39.5 119.5,44.5C 114.5,44.5 109.5,44.5 104.5,44.5C 104.5,39.5 104.5,34.5 104.5,29.5C 109.5,29.5 114.5,29.5 119.5,29.5 Z"/></g>
<g><path style="opacity:1" fill="#dddddd" d="M 479.5,29.5 C 479.5,34.5 479.5,39.5 479.5,44.5C 474.5,44.5 469.5,44.5 464.5,44.5C 464.5,39.5 464.5,34.5 464.5,29.5C 469.5,29.5 474.5,29.5 479.5,29.5 Z"/></g>
<g><path style="opacity:1" fill="#dddddd" d="M -0.5,44.5 C 4.5,44.5 9.5,44.5 14.5,44.5C 14.5,49.5 14.5,54.5 14.5,59.5C 9.5,59.5 4.5,59.5 -0.5,59.5C -0.5,54.5 -0.5,49.5 -0.5,44.5 Z"/></g>
<g><path style="opacity:1" fill="#dddddd" d="M 29.5,44.5 C 34.5,44.5 39.5,44.5 44.5,44.5C 44.5,49.5 44.5,54.5 44.5,59.5C 39.5,59.5 34.5,59.5 29.5,59.5C 29.5,54.5 29.5,49.5 29.5,44.5 Z"/></g>
<g><path style="opacity:1" fill="#fefefe" d="M 44.5,44.5 C 49.5,44.5 54.5,44.5 59.5,44.5C 59.5,49.5 59.5,54.5 59.5,59.5C 54.5,59.5 49.5,59.5 44.5,59.5C 44.5,54.5 44.5,49.5 44.5,44.5 Z"/></g>
<g><path style="opacity:1" fill="#dddddd" d="M 59.5,44.5 C 64.5,44.5 69.5,44.5 74.5,44.5C 74.5,49.5 74.5,54.5 74.5,59.5C 69.5,59.5 64.5,59.5 59.5,59.5C 59.5,54.5 59.5,49.5 59.5,44.5 Z"/></g>
<g><path style="opacity:1" fill="#fefefe" d="M 149.5,-0.5 C 154.5,-0.5 159.5,-0.5 164.5,-0.5C 164.5,4.5 164.5,9.5 164.5,14.5C 169.5,14.5 174.5,14.5 179.5,14.5C 179.5,9.5 179.5,4.5 179.5,-0.5C 184.5,-0.5 189.5,-0.5 194.5,-0.5C 194.173,4.21369 194.507,8.88035 195.5,13.5C 200.1,14.4435 204.767,14.7768 209.5,14.5C 209.5,9.5 209.5,4.5 209.5,-0.5C 214.5,-0.5 219.5,-0.5 224.5,-0.5C 224.5,4.5 224.5,9.5 224.5,14.5C 229.5,14.5 234.5,14.5 239.5,14.5C 239.5,19.5 239.5,24.5 239.5,29.5C 244.5,29.5 249.5,29.5 254.5,29.5C 254.5,24.5 254.5,19.5 254.5,14.5C 259.5,14.5 264.5,14.5 269.5,14.5C 269.5,9.5 269.5,4.5 269.5,-0.5C 274.5,-0.5 279.5,-0.5 284.5,-0.5C 284.5,4.5 284.5,9.5 284.5,14.5C 289.5,14.5 294.5,14.5 299.5,14.5C 299.5,9.5 299.5,4.5 299.5,-0.5C 304.5,-0.5 309.5,-0.5 314.5,-0.5C 314.173,4.21369 314.507,8.88035 315.5,13.5C 320.1,14.4435 324.767,14.7768 329.5,14.5C 329.5,9.5 329.5,4.5 329.5,-0.5C 334.5,-0.5 339.5,-0.5 344.5,-0.5C 344.5,4.5 344.5,9.5 344.5,14.5C 349.5,14.5 354.5,14.5 359.5,14.5C 359.5,19.5 359.5,24.5 359.5,29.5C 364.5,29.5 369.5,29.5 374.5,29.5C 374.5,24.5 374.5,19.5 374.5,14.5C 379.5,14.5 384.5,14.5 389.5,14.5C 389.5,9.5 389.5,4.5 389.5,-0.5C 394.5,-0.5 399.5,-0.5 404.5,-0.5C 404.5,4.5 404.5,9.5 404.5,14.5C 409.5,14.5 414.5,14.5 419.5,14.5C 419.5,9.5 419.5,4.5 419.5,-0.5C 424.5,-0.5 429.5,-0.5 434.5,-0.5C 434.173,4.21369 434.507,8.88035 435.5,13.5C 440.1,14.4435 444.767,14.7768 449.5,14.5C 449.5,9.5 449.5,4.5 449.5,-0.5C 454.5,-0.5 459.5,-0.5 464.5,-0.5C 464.5,4.5 464.5,9.5 464.5,14.5C 469.5,14.5 474.5,14.5 479.5,14.5C 479.5,19.5 479.5,24.5 479.5,29.5C 474.5,29.5 469.5,29.5 464.5,29.5C 464.5,34.5 464.5,39.5 464.5,44.5C 459.5,44.5 454.5,44.5 449.5,44.5C 449.5,49.5 449.5,54.5 449.5,59.5C 444.5,59.5 439.5,59.5 434.5,59.5C 434.5,54.5 434.5,49.5 434.5,44.5C 439.179,44.6658 443.845,44.4992 448.5,44C 449.469,39.2633 449.803,34.43 449.5,29.5C 444.5,29.5 439.5,29.5 434.5,29.5C 434.666,24.8215 434.499,20.1548 434,15.5C 429.333,14.1667 424.667,14.1667 420,15.5C 419.501,20.1548 419.334,24.8215 419.5,29.5C 414.5,29.5 409.5,29.5 404.5,29.5C 404.5,34.5 404.5,39.5 404.5,44.5C 399.5,44.5 394.5,44.5 389.5,44.5C 389.06,48.1785 389.727,51.5118 391.5,54.5C 300.833,54.3333 210.166,54.5 119.5,55C 115.122,55.6786 110.789,56.5119 106.5,57.5C 104.57,53.6273 103.903,49.294 104.5,44.5C 109.5,44.5 114.5,44.5 119.5,44.5C 119.5,39.5 119.5,34.5 119.5,29.5C 124.5,29.5 129.5,29.5 134.5,29.5C 134.5,24.5 134.5,19.5 134.5,14.5C 139.5,14.5 144.5,14.5 149.5,14.5C 149.5,9.5 149.5,4.5 149.5,-0.5 Z"/></g>
<g><path style="opacity:1" fill="#dedede" d="M 179.5,44.5 C 184.5,44.5 189.5,44.5 194.5,44.5C 194.5,47.5 194.5,50.5 194.5,53.5C 189.5,53.5 184.5,53.5 179.5,53.5C 179.5,50.5 179.5,47.5 179.5,44.5 Z"/></g>
<g><path style="opacity:1" fill="#dedede" d="M 149.5,44.5 C 154.5,44.5 159.5,44.5 164.5,44.5C 164.5,47.5 164.5,50.5 164.5,53.5C 159.5,53.5 154.5,53.5 149.5,53.5C 149.5,50.5 149.5,47.5 149.5,44.5 Z"/></g>
<g><path style="opacity:1" fill="#dddddd" d="M 119.5,44.5 C 124.5,44.5 129.5,44.5 134.5,44.5C 134.5,47.5 134.5,50.5 134.5,53.5C 129.5,53.5 124.5,53.5 119.5,53.5C 119.5,50.5 119.5,47.5 119.5,44.5 Z"/></g>
<g><path style="opacity:1" fill="#dddddd" d="M 434.5,29.5 C 439.5,29.5 444.5,29.5 449.5,29.5C 449.803,34.43 449.469,39.2633 448.5,44C 443.845,44.4992 439.179,44.6658 434.5,44.5C 434.5,39.5 434.5,34.5 434.5,29.5 Z"/></g>
<g><path style="opacity:1" fill="#fefefe" d="M 419.5,29.5 C 424.5,29.5 429.5,29.5 434.5,29.5C 434.5,34.5 434.5,39.5 434.5,44.5C 429.5,44.5 424.5,44.5 419.5,44.5C 419.5,39.5 419.5,34.5 419.5,29.5 Z"/></g>
<g><path style="opacity:1" fill="#dddddd" d="M 419.5,29.5 C 419.5,34.5 419.5,39.5 419.5,44.5C 414.5,44.5 409.5,44.5 404.5,44.5C 404.5,39.5 404.5,34.5 404.5,29.5C 409.5,29.5 414.5,29.5 419.5,29.5 Z"/></g>
<g><path style="opacity:1" fill="#dddddd" d="M 389.5,29.5 C 389.5,34.5 389.5,39.5 389.5,44.5C 384.821,44.6658 380.155,44.4992 375.5,44C 374.167,39.3333 374.167,34.6667 375.5,30C 380.155,29.5008 384.821,29.3342 389.5,29.5 Z"/></g>
<g><path style="opacity:1" fill="#dddddd" d="M 359.5,29.5 C 359.5,34.5 359.5,39.5 359.5,44.5C 354.5,44.5 349.5,44.5 344.5,44.5C 344.5,39.5 344.5,34.5 344.5,29.5C 349.5,29.5 354.5,29.5 359.5,29.5 Z"/></g>
<g><path style="opacity:1" fill="#dddddd" d="M 314.5,29.5 C 319.5,29.5 324.5,29.5 329.5,29.5C 329.666,34.1785 329.499,38.8452 329,43.5C 324.263,44.4692 319.43,44.8025 314.5,44.5C 314.5,39.5 314.5,34.5 314.5,29.5 Z"/></g>
<g><path style="opacity:1" fill="#fefefe" d="M 299.5,29.5 C 304.5,29.5 309.5,29.5 314.5,29.5C 314.5,34.5 314.5,39.5 314.5,44.5C 309.5,44.5 304.5,44.5 299.5,44.5C 299.5,39.5 299.5,34.5 299.5,29.5 Z"/></g>
<g><path style="opacity:1" fill="#dddddd" d="M 299.5,29.5 C 299.5,34.5 299.5,39.5 299.5,44.5C 294.5,44.5 289.5,44.5 284.5,44.5C 284.5,39.5 284.5,34.5 284.5,29.5C 289.5,29.5 294.5,29.5 299.5,29.5 Z"/></g>
<g><path style="opacity:1" fill="#dddddd" d="M 269.5,29.5 C 269.5,34.5 269.5,39.5 269.5,44.5C 264.821,44.6658 260.155,44.4992 255.5,44C 254.167,39.3333 254.167,34.6667 255.5,30C 260.155,29.5008 264.821,29.3342 269.5,29.5 Z"/></g>
<g><path style="opacity:1" fill="#dddddd" d="M 239.5,29.5 C 239.5,34.5 239.5,39.5 239.5,44.5C 234.5,44.5 229.5,44.5 224.5,44.5C 224.5,39.5 224.5,34.5 224.5,29.5C 229.5,29.5 234.5,29.5 239.5,29.5 Z"/></g>
<g><path style="opacity:1" fill="#dddddd" d="M 194.5,29.5 C 199.5,29.5 204.5,29.5 209.5,29.5C 209.666,34.1785 209.499,38.8452 209,43.5C 204.263,44.4692 199.43,44.8025 194.5,44.5C 194.5,39.5 194.5,34.5 194.5,29.5 Z"/></g>
<g><path style="opacity:1" fill="#fefefe" d="M 179.5,29.5 C 184.5,29.5 189.5,29.5 194.5,29.5C 194.5,34.5 194.5,39.5 194.5,44.5C 189.5,44.5 184.5,44.5 179.5,44.5C 179.5,39.5 179.5,34.5 179.5,29.5 Z"/></g>
<g><path style="opacity:1" fill="#dddddd" d="M 179.5,29.5 C 179.5,34.5 179.5,39.5 179.5,44.5C 174.5,44.5 169.5,44.5 164.5,44.5C 164.5,39.5 164.5,34.5 164.5,29.5C 169.5,29.5 174.5,29.5 179.5,29.5 Z"/></g>
<g><path style="opacity:1" fill="#dddddd" d="M 149.5,29.5 C 149.5,34.5 149.5,39.5 149.5,44.5C 144.821,44.6658 140.155,44.4992 135.5,44C 134.167,39.3333 134.167,34.6667 135.5,30C 140.155,29.5008 144.821,29.3342 149.5,29.5 Z"/></g>
<g><path style="opacity:1" fill="#dddddd" d="M 449.5,29.5 C 449.334,24.8215 449.501,20.1548 450,15.5C 454.413,14.3676 458.913,14.2009 463.5,15C 464.632,19.4132 464.799,23.9132 464,28.5C 459.263,29.4692 454.43,29.8025 449.5,29.5 Z"/></g>
<g><path style="opacity:1" fill="#dddddd" d="M 434.5,29.5 C 429.5,29.5 424.5,29.5 419.5,29.5C 419.334,24.8215 419.501,20.1548 420,15.5C 424.667,14.1667 429.333,14.1667 434,15.5C 434.499,20.1548 434.666,24.8215 434.5,29.5 Z"/></g>
<g><path style="opacity:1" fill="#dddddd" d="M 389.5,29.5 C 389.334,24.8215 389.501,20.1548 390,15.5C 394.413,14.3676 398.913,14.2009 403.5,15C 404.632,19.4132 404.799,23.9132 404,28.5C 399.263,29.4692 394.43,29.8025 389.5,29.5 Z"/></g>
<g><path style="opacity:1" fill="#dddddd" d="M 359.5,14.5 C 364.5,14.5 369.5,14.5 374.5,14.5C 374.5,19.5 374.5,24.5 374.5,29.5C 369.5,29.5 364.5,29.5 359.5,29.5C 359.5,24.5 359.5,19.5 359.5,14.5 Z"/></g>
<g><path style="opacity:1" fill="#dddddd" d="M 329.5,29.5 C 329.334,24.8215 329.501,20.1548 330,15.5C 334.413,14.3676 338.913,14.2009 343.5,15C 344.632,19.4132 344.799,23.9132 344,28.5C 339.263,29.4692 334.43,29.8025 329.5,29.5 Z"/></g>
<g><path style="opacity:1" fill="#dddddd" d="M 314.5,29.5 C 309.5,29.5 304.5,29.5 299.5,29.5C 299.334,24.8215 299.501,20.1548 300,15.5C 304.667,14.1667 309.333,14.1667 314,15.5C 314.499,20.1548 314.666,24.8215 314.5,29.5 Z"/></g>
<g><path style="opacity:1" fill="#dddddd" d="M 269.5,29.5 C 269.334,24.8215 269.501,20.1548 270,15.5C 274.413,14.3676 278.913,14.2009 283.5,15C 284.632,19.4132 284.799,23.9132 284,28.5C 279.263,29.4692 274.43,29.8025 269.5,29.5 Z"/></g>
<g><path style="opacity:1" fill="#dddddd" d="M 239.5,14.5 C 244.5,14.5 249.5,14.5 254.5,14.5C 254.5,19.5 254.5,24.5 254.5,29.5C 249.5,29.5 244.5,29.5 239.5,29.5C 239.5,24.5 239.5,19.5 239.5,14.5 Z"/></g>
<g><path style="opacity:1" fill="#dddddd" d="M 209.5,29.5 C 209.334,24.8215 209.501,20.1548 210,15.5C 214.413,14.3676 218.913,14.2009 223.5,15C 224.632,19.4132 224.799,23.9132 224,28.5C 219.263,29.4692 214.43,29.8025 209.5,29.5 Z"/></g>
<g><path style="opacity:1" fill="#dddddd" d="M 194.5,29.5 C 189.5,29.5 184.5,29.5 179.5,29.5C 179.334,24.8215 179.501,20.1548 180,15.5C 184.667,14.1667 189.333,14.1667 194,15.5C 194.499,20.1548 194.666,24.8215 194.5,29.5 Z"/></g>
<g><path style="opacity:1" fill="#dddddd" d="M 149.5,29.5 C 149.334,24.8215 149.501,20.1548 150,15.5C 154.413,14.3676 158.913,14.2009 163.5,15C 164.632,19.4132 164.799,23.9132 164,28.5C 159.263,29.4692 154.43,29.8025 149.5,29.5 Z"/></g>
<g><path style="opacity:1" fill="#dddddd" d="M 434.5,-0.5 C 439.5,-0.5 444.5,-0.5 449.5,-0.5C 449.5,4.5 449.5,9.5 449.5,14.5C 444.767,14.7768 440.1,14.4435 435.5,13.5C 434.507,8.88035 434.173,4.21369 434.5,-0.5 Z"/></g>
<g><path style="opacity:1" fill="#dddddd" d="M 404.5,-0.5 C 409.5,-0.5 414.5,-0.5 419.5,-0.5C 419.5,4.5 419.5,9.5 419.5,14.5C 414.5,14.5 409.5,14.5 404.5,14.5C 404.5,9.5 404.5,4.5 404.5,-0.5 Z"/></g>
<g><path style="opacity:1" fill="#dddddd" d="M 374.5,-0.5 C 379.5,-0.5 384.5,-0.5 389.5,-0.5C 389.5,4.5 389.5,9.5 389.5,14.5C 384.5,14.5 379.5,14.5 374.5,14.5C 374.5,9.5 374.5,4.5 374.5,-0.5 Z"/></g>
<g><path style="opacity:1" fill="#fefefe" d="M 359.5,-0.5 C 364.5,-0.5 369.5,-0.5 374.5,-0.5C 374.5,4.5 374.5,9.5 374.5,14.5C 369.5,14.5 364.5,14.5 359.5,14.5C 359.5,9.5 359.5,4.5 359.5,-0.5 Z"/></g>
<g><path style="opacity:1" fill="#dddddd" d="M 344.5,-0.5 C 349.5,-0.5 354.5,-0.5 359.5,-0.5C 359.5,4.5 359.5,9.5 359.5,14.5C 354.5,14.5 349.5,14.5 344.5,14.5C 344.5,9.5 344.5,4.5 344.5,-0.5 Z"/></g>
<g><path style="opacity:1" fill="#dddddd" d="M 314.5,-0.5 C 319.5,-0.5 324.5,-0.5 329.5,-0.5C 329.5,4.5 329.5,9.5 329.5,14.5C 324.767,14.7768 320.1,14.4435 315.5,13.5C 314.507,8.88035 314.173,4.21369 314.5,-0.5 Z"/></g>
<g><path style="opacity:1" fill="#dddddd" d="M 284.5,-0.5 C 289.5,-0.5 294.5,-0.5 299.5,-0.5C 299.5,4.5 299.5,9.5 299.5,14.5C 294.5,14.5 289.5,14.5 284.5,14.5C 284.5,9.5 284.5,4.5 284.5,-0.5 Z"/></g>
<g><path style="opacity:1" fill="#dddddd" d="M 254.5,-0.5 C 259.5,-0.5 264.5,-0.5 269.5,-0.5C 269.5,4.5 269.5,9.5 269.5,14.5C 264.5,14.5 259.5,14.5 254.5,14.5C 254.5,9.5 254.5,4.5 254.5,-0.5 Z"/></g>
<g><path style="opacity:1" fill="#fefefe" d="M 239.5,-0.5 C 244.5,-0.5 249.5,-0.5 254.5,-0.5C 254.5,4.5 254.5,9.5 254.5,14.5C 249.5,14.5 244.5,14.5 239.5,14.5C 239.5,9.5 239.5,4.5 239.5,-0.5 Z"/></g>
<g><path style="opacity:1" fill="#dddddd" d="M 224.5,-0.5 C 229.5,-0.5 234.5,-0.5 239.5,-0.5C 239.5,4.5 239.5,9.5 239.5,14.5C 234.5,14.5 229.5,14.5 224.5,14.5C 224.5,9.5 224.5,4.5 224.5,-0.5 Z"/></g>
<g><path style="opacity:1" fill="#dddddd" d="M 194.5,-0.5 C 199.5,-0.5 204.5,-0.5 209.5,-0.5C 209.5,4.5 209.5,9.5 209.5,14.5C 204.767,14.7768 200.1,14.4435 195.5,13.5C 194.507,8.88035 194.173,4.21369 194.5,-0.5 Z"/></g>
<g><path style="opacity:1" fill="#dddddd" d="M 164.5,-0.5 C 169.5,-0.5 174.5,-0.5 179.5,-0.5C 179.5,4.5 179.5,9.5 179.5,14.5C 174.5,14.5 169.5,14.5 164.5,14.5C 164.5,9.5 164.5,4.5 164.5,-0.5 Z"/></g>
<g><path style="opacity:1" fill="#dedede" d="M 269.5,44.5 C 274.5,44.5 279.5,44.5 284.5,44.5C 284.5,47.5 284.5,50.5 284.5,53.5C 279.5,53.5 274.5,53.5 269.5,53.5C 269.5,50.5 269.5,47.5 269.5,44.5 Z"/></g>
<g><path style="opacity:1" fill="#dedede" d="M 299.5,44.5 C 304.5,44.5 309.5,44.5 314.5,44.5C 314.5,47.5 314.5,50.5 314.5,53.5C 309.5,53.5 304.5,53.5 299.5,53.5C 299.5,50.5 299.5,47.5 299.5,44.5 Z"/></g>
<g><path style="opacity:1" fill="#dedede" d="M 389.5,44.5 C 394.5,44.5 399.5,44.5 404.5,44.5C 404.207,48.4367 404.54,52.27 405.5,56C 404.263,56.2321 403.263,56.7321 402.5,57.5C 398.712,56.6152 395.046,55.6152 391.5,54.5C 389.727,51.5118 389.06,48.1785 389.5,44.5 Z"/></g>
<g><path style="opacity:1" fill="#dddddd" d="M 419.5,44.5 C 424.5,44.5 429.5,44.5 434.5,44.5C 434.5,49.5 434.5,54.5 434.5,59.5C 429.5,59.5 424.5,59.5 419.5,59.5C 419.5,54.5 419.5,49.5 419.5,44.5 Z"/></g>
<g><path style="opacity:1" fill="#dddddd" d="M 464.5,44.5 C 464.5,49.5 464.5,54.5 464.5,59.5C 459.5,59.5 454.5,59.5 449.5,59.5C 449.5,54.5 449.5,49.5 449.5,44.5C 454.5,44.5 459.5,44.5 464.5,44.5 Z"/></g>
<g><path style="opacity:1" fill="#fefefe" d="M 464.5,44.5 C 469.5,44.5 474.5,44.5 479.5,44.5C 479.5,49.5 479.5,54.5 479.5,59.5C 474.5,59.5 469.5,59.5 464.5,59.5C 464.5,54.5 464.5,49.5 464.5,44.5 Z"/></g>
<g><path style="opacity:1" fill="#dddddd" d="M 479.5,44.5 C 484.5,44.5 489.5,44.5 494.5,44.5C 494.5,49.5 494.5,54.5 494.5,59.5C 489.5,59.5 484.5,59.5 479.5,59.5C 479.5,54.5 479.5,49.5 479.5,44.5 Z"/></g>
<g><path style="opacity:1" fill="#dddddd" d="M 224.5,44.5 C 224.777,47.4475 224.444,50.2809 223.5,53C 218.845,53.4992 214.179,53.6658 209.5,53.5C 209.5,50.5 209.5,47.5 209.5,44.5C 214.5,44.5 219.5,44.5 224.5,44.5 Z"/></g>
<g><path style="opacity:1" fill="#dddddd" d="M 344.5,44.5 C 344.777,47.4475 344.444,50.2809 343.5,53C 338.845,53.4992 334.179,53.6658 329.5,53.5C 329.5,50.5 329.5,47.5 329.5,44.5C 334.5,44.5 339.5,44.5 344.5,44.5 Z"/></g>
<g><path style="opacity:1" fill="#dddddd" d="M 239.5,44.5 C 244.5,44.5 249.5,44.5 254.5,44.5C 254.5,47.5 254.5,50.5 254.5,53.5C 249.5,53.5 244.5,53.5 239.5,53.5C 239.5,50.5 239.5,47.5 239.5,44.5 Z"/></g>
<g><path style="opacity:1" fill="#dddddd" d="M 359.5,44.5 C 364.5,44.5 369.5,44.5 374.5,44.5C 374.5,47.5 374.5,50.5 374.5,53.5C 369.5,53.5 364.5,53.5 359.5,53.5C 359.5,50.5 359.5,47.5 359.5,44.5 Z"/></g>
<g><path style="opacity:1" fill="#000000" d="M 391.5,54.5 C 395.046,55.6152 398.712,56.6152 402.5,57.5C 427.424,66.0909 444.424,82.7576 453.5,107.5C 454.645,111.416 455.478,115.416 456,119.5C 456.667,209.5 456.667,299.5 456,389.5C 453.707,406.413 446.873,421.08 435.5,433.5C 434.5,433.833 433.833,434.5 433.5,435.5C 417.015,450.998 397.348,457.998 374.5,456.5C 289.5,456.5 204.5,456.5 119.5,456.5C 115.615,455.51 111.615,454.51 107.5,453.5C 82.7576,444.424 66.0909,427.424 57.5,402.5C 56.6322,398.686 55.6322,395.019 54.5,391.5C 54.3333,300.833 54.5,210.166 55,119.5C 55.8555,114.08 57.0222,108.747 58.5,103.5C 68.2854,81.7153 84.2854,66.3819 106.5,57.5C 110.789,56.5119 115.122,55.6786 119.5,55C 210.166,54.5 300.833,54.3333 391.5,54.5 Z"/></g>
<g><path style="opacity:1" fill="#dddddd" d="M 14.5,59.5 C 19.5,59.5 24.5,59.5 29.5,59.5C 29.5,64.5 29.5,69.5 29.5,74.5C 24.8215,74.6658 20.1548,74.4992 15.5,74C 14.5308,69.2633 14.1975,64.43 14.5,59.5 Z"/></g>
<g><path style="opacity:1" fill="#dddddd" d="M 44.5,59.5 C 49.5,59.5 54.5,59.5 59.5,59.5C 59.5,64.5 59.5,69.5 59.5,74.5C 54.5,74.5 49.5,74.5 44.5,74.5C 44.5,69.5 44.5,64.5 44.5,59.5 Z"/></g>
<g><path style="opacity:1" fill="#fefefe" d="M 59.5,59.5 C 64.5,59.5 69.5,59.5 74.5,59.5C 74.5,64.5 74.5,69.5 74.5,74.5C 69.5,74.5 64.5,74.5 59.5,74.5C 59.5,69.5 59.5,64.5 59.5,59.5 Z"/></g>
<g><path style="opacity:1" fill="#dddddd" d="M 464.5,59.5 C 469.5,59.5 474.5,59.5 479.5,59.5C 479.5,64.5 479.5,69.5 479.5,74.5C 474.5,74.5 469.5,74.5 464.5,74.5C 464.5,69.5 464.5,64.5 464.5,59.5 Z"/></g>
<g><path style="opacity:1" fill="#dddddd" d="M -0.5,74.5 C 4.5,74.5 9.5,74.5 14.5,74.5C 14.5,79.5 14.5,84.5 14.5,89.5C 9.5,89.5 4.5,89.5 -0.5,89.5C -0.5,84.5 -0.5,79.5 -0.5,74.5 Z"/></g>
<g><path style="opacity:1" fill="#fefefe" d="M -0.5,59.5 C 4.5,59.5 9.5,59.5 14.5,59.5C 14.1975,64.43 14.5308,69.2633 15.5,74C 20.1548,74.4992 24.8215,74.6658 29.5,74.5C 29.5,79.5 29.5,84.5 29.5,89.5C 34.5,89.5 39.5,89.5 44.5,89.5C 44.6658,94.1785 44.4992,98.8452 44,103.5C 39.2633,104.469 34.43,104.803 29.5,104.5C 29.5,109.5 29.5,114.5 29.5,119.5C 24.5,119.5 19.5,119.5 14.5,119.5C 14.5,114.5 14.5,109.5 14.5,104.5C 9.5,104.5 4.5,104.5 -0.5,104.5C -0.5,99.5 -0.5,94.5 -0.5,89.5C 4.5,89.5 9.5,89.5 14.5,89.5C 14.5,84.5 14.5,79.5 14.5,74.5C 9.5,74.5 4.5,74.5 -0.5,74.5C -0.5,69.5 -0.5,64.5 -0.5,59.5 Z"/></g>
<g><path style="opacity:1" fill="#dddddd" d="M 29.5,74.5 C 34.1785,74.3342 38.8452,74.5008 43.5,75C 44.4692,79.7367 44.8025,84.57 44.5,89.5C 39.5,89.5 34.5,89.5 29.5,89.5C 29.5,84.5 29.5,79.5 29.5,74.5 Z"/></g>
<g><path style="opacity:1" fill="#fefefe" d="M 29.5,59.5 C 34.5,59.5 39.5,59.5 44.5,59.5C 44.5,64.5 44.5,69.5 44.5,74.5C 49.5,74.5 54.5,74.5 59.5,74.5C 59.5,79.5 59.5,84.5 59.5,89.5C 54.5,89.5 49.5,89.5 44.5,89.5C 44.8025,84.57 44.4692,79.7367 43.5,75C 38.8452,74.5008 34.1785,74.3342 29.5,74.5C 29.5,69.5 29.5,64.5 29.5,59.5 Z"/></g>
<g><path style="opacity:1" fill="#dedede" d="M 104.5,44.5 C 103.903,49.294 104.57,53.6273 106.5,57.5C 84.2854,66.3819 68.2854,81.7153 58.5,103.5C 58.5654,103.062 58.3988,102.728 58,102.5C 53.8222,104.399 49.3222,105.065 44.5,104.5C 44.5,109.5 44.5,114.5 44.5,119.5C 39.5,119.5 34.5,119.5 29.5,119.5C 29.5,114.5 29.5,109.5 29.5,104.5C 34.43,104.803 39.2633,104.469 44,103.5C 44.4992,98.8452 44.6658,94.1785 44.5,89.5C 49.5,89.5 54.5,89.5 59.5,89.5C 59.5,84.5 59.5,79.5 59.5,74.5C 64.5,74.5 69.5,74.5 74.5,74.5C 74.5,69.5 74.5,64.5 74.5,59.5C 79.5,59.5 84.5,59.5 89.5,59.5C 89.5,54.5 89.5,49.5 89.5,44.5C 94.5,44.5 99.5,44.5 104.5,44.5 Z"/></g>
<g><path style="opacity:1" fill="#dddddd" d="M 479.5,74.5 C 484.5,74.5 489.5,74.5 494.5,74.5C 494.5,79.5 494.5,84.5 494.5,89.5C 489.5,89.5 484.5,89.5 479.5,89.5C 479.5,84.5 479.5,79.5 479.5,74.5 Z"/></g>
<g><path style="opacity:1" fill="#dddddd" d="M 29.5,89.5 C 29.6658,94.1785 29.4992,98.8452 29,103.5C 24.5868,104.632 20.0868,104.799 15.5,104C 14.3676,99.5868 14.2009,95.0868 15,90.5C 19.7367,89.5308 24.57,89.1975 29.5,89.5 Z"/></g>
<g><path style="opacity:1" fill="#dddddd" d="M 479.5,89.5 C 479.5,94.5 479.5,99.5 479.5,104.5C 474.821,104.666 470.155,104.499 465.5,104C 464.531,99.2633 464.197,94.43 464.5,89.5C 469.5,89.5 474.5,89.5 479.5,89.5 Z"/></g>
<g><path style="opacity:1" fill="#dddddd" d="M -0.5,104.5 C 4.5,104.5 9.5,104.5 14.5,104.5C 14.5,109.5 14.5,114.5 14.5,119.5C 9.5,119.5 4.5,119.5 -0.5,119.5C -0.5,114.5 -0.5,109.5 -0.5,104.5 Z"/></g>
<g><path style="opacity:1" fill="#fcfcfc" d="M 404.5,44.5 C 409.5,44.5 414.5,44.5 419.5,44.5C 419.5,49.5 419.5,54.5 419.5,59.5C 424.5,59.5 429.5,59.5 434.5,59.5C 434.334,64.1785 434.501,68.8452 435,73.5C 439.737,74.4692 444.57,74.8025 449.5,74.5C 449.5,69.5 449.5,64.5 449.5,59.5C 454.5,59.5 459.5,59.5 464.5,59.5C 464.5,64.5 464.5,69.5 464.5,74.5C 469.5,74.5 474.5,74.5 479.5,74.5C 479.5,79.5 479.5,84.5 479.5,89.5C 474.5,89.5 469.5,89.5 464.5,89.5C 464.197,94.43 464.531,99.2633 465.5,104C 470.155,104.499 474.821,104.666 479.5,104.5C 479.5,109.5 479.5,114.5 479.5,119.5C 474.5,119.5 469.5,119.5 464.5,119.5C 464.666,114.821 464.499,110.155 464,105.5C 460.943,104.549 457.777,104.216 454.5,104.5C 454.737,105.791 454.404,106.791 453.5,107.5C 444.424,82.7576 427.424,66.0909 402.5,57.5C 403.263,56.7321 404.263,56.2321 405.5,56C 404.54,52.27 404.207,48.4367 404.5,44.5 Z"/></g>
<g><path style="opacity:1" fill="#dddddd" d="M 449.5,74.5 C 454.179,74.3342 458.845,74.5008 463.5,75C 464.833,79.6667 464.833,84.3333 463.5,89C 458.845,89.4992 454.179,89.6658 449.5,89.5C 449.5,84.5 449.5,79.5 449.5,74.5 Z"/></g>
<g><path style="opacity:1" fill="#dddddd" d="M 434.5,59.5 C 439.5,59.5 444.5,59.5 449.5,59.5C 449.5,64.5 449.5,69.5 449.5,74.5C 444.57,74.8025 439.737,74.4692 435,73.5C 434.501,68.8452 434.334,64.1785 434.5,59.5 Z"/></g>
<g><path style="opacity:1" fill="#dddddd" d="M 479.5,104.5 C 484.5,104.5 489.5,104.5 494.5,104.5C 494.5,109.5 494.5,114.5 494.5,119.5C 489.5,119.5 484.5,119.5 479.5,119.5C 479.5,114.5 479.5,109.5 479.5,104.5 Z"/></g>
<g><path style="opacity:1" fill="#fefefe" d="M -0.5,119.5 C 4.5,119.5 9.5,119.5 14.5,119.5C 14.5,124.5 14.5,129.5 14.5,134.5C 9.5,134.5 4.5,134.5 -0.5,134.5C -0.5,129.5 -0.5,124.5 -0.5,119.5 Z"/></g>
<g><path style="opacity:1" fill="#dddddd" d="M 14.5,119.5 C 19.5,119.5 24.5,119.5 29.5,119.5C 29.5,124.5 29.5,129.5 29.5,134.5C 24.5,134.5 19.5,134.5 14.5,134.5C 14.5,129.5 14.5,124.5 14.5,119.5 Z"/></g>
<g><path style="opacity:1" fill="#fefefe" d="M 58.5,103.5 C 57.0222,108.747 55.8555,114.08 55,119.5C 54.5,210.166 54.3333,300.833 54.5,391.5C 51.5118,389.727 48.1785,389.06 44.5,389.5C 44.5,394.5 44.5,399.5 44.5,404.5C 39.5,404.5 34.5,404.5 29.5,404.5C 29.5,409.5 29.5,414.5 29.5,419.5C 24.5,419.5 19.5,419.5 14.5,419.5C 14.5,414.5 14.5,409.5 14.5,404.5C 9.5,404.5 4.5,404.5 -0.5,404.5C -0.5,399.5 -0.5,394.5 -0.5,389.5C 4.5,389.5 9.5,389.5 14.5,389.5C 14.5,384.5 14.5,379.5 14.5,374.5C 19.5,374.5 24.5,374.5 29.5,374.5C 29.5,369.5 29.5,364.5 29.5,359.5C 34.5,359.5 39.5,359.5 44.5,359.5C 44.5,354.5 44.5,349.5 44.5,344.5C 47.4475,344.777 50.2809,344.444 53,343.5C 53.4992,338.845 53.6658,334.179 53.5,329.5C 50.5,329.5 47.5,329.5 44.5,329.5C 44.6658,324.821 44.4992,320.155 44,315.5C 39.2633,314.531 34.43,314.197 29.5,314.5C 29.5,309.5 29.5,304.5 29.5,299.5C 24.5,299.5 19.5,299.5 14.5,299.5C 14.5,294.5 14.5,289.5 14.5,284.5C 9.5,284.5 4.5,284.5 -0.5,284.5C -0.5,279.5 -0.5,274.5 -0.5,269.5C 4.5,269.5 9.5,269.5 14.5,269.5C 14.5,264.5 14.5,259.5 14.5,254.5C 19.5,254.5 24.5,254.5 29.5,254.5C 29.5,249.5 29.5,244.5 29.5,239.5C 34.5,239.5 39.5,239.5 44.5,239.5C 44.5,234.5 44.5,229.5 44.5,224.5C 47.4475,224.777 50.2809,224.444 53,223.5C 53.4992,218.845 53.6658,214.179 53.5,209.5C 50.5,209.5 47.5,209.5 44.5,209.5C 44.6658,204.821 44.4992,200.155 44,195.5C 39.2633,194.531 34.43,194.197 29.5,194.5C 29.5,189.5 29.5,184.5 29.5,179.5C 24.5,179.5 19.5,179.5 14.5,179.5C 14.5,174.5 14.5,169.5 14.5,164.5C 9.5,164.5 4.5,164.5 -0.5,164.5C -0.5,159.5 -0.5,154.5 -0.5,149.5C 4.5,149.5 9.5,149.5 14.5,149.5C 14.5,144.5 14.5,139.5 14.5,134.5C 19.5,134.5 24.5,134.5 29.5,134.5C 29.5,129.5 29.5,124.5 29.5,119.5C 34.5,119.5 39.5,119.5 44.5,119.5C 44.5,114.5 44.5,109.5 44.5,104.5C 49.3222,105.065 53.8222,104.399 58,102.5C 58.3988,102.728 58.5654,103.062 58.5,103.5 Z"/></g>
<g><path style="opacity:1" fill="#dddddd" d="M 44.5,119.5 C 47.5,119.5 50.5,119.5 53.5,119.5C 53.5,124.5 53.5,129.5 53.5,134.5C 50.5,134.5 47.5,134.5 44.5,134.5C 44.5,129.5 44.5,124.5 44.5,119.5 Z"/></g>
<g><path style="opacity:1" fill="#eaeaea" d="M 479.5,119.5 C 484.5,119.5 489.5,119.5 494.5,119.5C 499.5,119.5 504.5,119.5 509.5,119.5C 509.5,124.5 509.5,129.5 509.5,134.5C 504.5,134.5 499.5,134.5 494.5,134.5C 494.5,139.5 494.5,144.5 494.5,149.5C 489.5,149.5 484.5,149.5 479.5,149.5C 479.5,154.5 479.5,159.5 479.5,164.5C 484.5,164.5 489.5,164.5 494.5,164.5C 494.5,169.5 494.5,174.5 494.5,179.5C 489.5,179.5 484.5,179.5 479.5,179.5C 479.5,184.5 479.5,189.5 479.5,194.5C 484.5,194.5 489.5,194.5 494.5,194.5C 494.5,199.5 494.5,204.5 494.5,209.5C 489.5,209.5 484.5,209.5 479.5,209.5C 479.5,214.5 479.5,219.5 479.5,224.5C 484.5,224.5 489.5,224.5 494.5,224.5C 494.5,229.5 494.5,234.5 494.5,239.5C 499.5,239.5 504.5,239.5 509.5,239.5C 509.5,244.5 509.5,249.5 509.5,254.5C 504.5,254.5 499.5,254.5 494.5,254.5C 494.5,259.5 494.5,264.5 494.5,269.5C 489.5,269.5 484.5,269.5 479.5,269.5C 479.5,274.5 479.5,279.5 479.5,284.5C 484.5,284.5 489.5,284.5 494.5,284.5C 494.5,289.5 494.5,294.5 494.5,299.5C 489.5,299.5 484.5,299.5 479.5,299.5C 479.5,304.5 479.5,309.5 479.5,314.5C 484.5,314.5 489.5,314.5 494.5,314.5C 494.5,319.5 494.5,324.5 494.5,329.5C 489.5,329.5 484.5,329.5 479.5,329.5C 479.5,334.5 479.5,339.5 479.5,344.5C 484.5,344.5 489.5,344.5 494.5,344.5C 494.5,349.5 494.5,354.5 494.5,359.5C 499.5,359.5 504.5,359.5 509.5,359.5C 509.5,364.5 509.5,369.5 509.5,374.5C 504.5,374.5 499.5,374.5 494.5,374.5C 494.5,379.5 494.5,384.5 494.5,389.5C 489.5,389.5 484.5,389.5 479.5,389.5C 479.5,394.5 479.5,399.5 479.5,404.5C 484.5,404.5 489.5,404.5 494.5,404.5C 494.5,409.5 494.5,414.5 494.5,419.5C 489.5,419.5 484.5,419.5 479.5,419.5C 479.5,424.5 479.5,429.5 479.5,434.5C 474.5,434.5 469.5,434.5 464.5,434.5C 464.5,429.5 464.5,424.5 464.5,419.5C 459.5,419.5 454.5,419.5 449.5,419.5C 449.5,424.5 449.5,429.5 449.5,434.5C 444.786,434.647 440.119,434.314 435.5,433.5C 446.873,421.08 453.707,406.413 456,389.5C 456.667,299.5 456.667,209.5 456,119.5C 455.478,115.416 454.645,111.416 453.5,107.5C 454.404,106.791 454.737,105.791 454.5,104.5C 457.777,104.216 460.943,104.549 464,105.5C 464.499,110.155 464.666,114.821 464.5,119.5C 469.5,119.5 474.5,119.5 479.5,119.5 Z"/></g>
<g><path style="opacity:1" fill="#dddddd" d="M -0.5,134.5 C 4.5,134.5 9.5,134.5 14.5,134.5C 14.5,139.5 14.5,144.5 14.5,149.5C 9.5,149.5 4.5,149.5 -0.5,149.5C -0.5,144.5 -0.5,139.5 -0.5,134.5 Z"/></g>
<g><path style="opacity:1" fill="#dddddd" d="M 29.5,149.5 C 29.3342,144.821 29.5008,140.155 30,135.5C 34.4132,134.368 38.9132,134.201 43.5,135C 44.6324,139.413 44.7991,143.913 44,148.5C 39.2633,149.469 34.43,149.803 29.5,149.5 Z"/></g>
<g><path style="opacity:1" fill="#dddddd" d="M 29.5,149.5 C 29.5,154.5 29.5,159.5 29.5,164.5C 24.8215,164.666 20.1548,164.499 15.5,164C 14.1667,159.333 14.1667,154.667 15.5,150C 20.1548,149.501 24.8215,149.334 29.5,149.5 Z"/></g>
<g><path style="opacity:1" fill="#dedede" d="M 44.5,164.5 C 44.5,159.5 44.5,154.5 44.5,149.5C 47.5,149.5 50.5,149.5 53.5,149.5C 53.5,154.5 53.5,159.5 53.5,164.5C 50.5,164.5 47.5,164.5 44.5,164.5 Z"/></g>
<g><path style="opacity:1" fill="#e9e9e9" d="M 353.5,192.5 C 351.012,194.388 348.012,195.055 344.5,194.5C 344.5,189.5 344.5,184.5 344.5,179.5C 339.5,179.5 334.5,179.5 329.5,179.5C 329.5,184.5 329.5,189.5 329.5,194.5C 334.179,194.334 338.845,194.501 343.5,195C 344.833,199.667 344.833,204.333 343.5,209C 338.845,209.499 334.179,209.666 329.5,209.5C 329.666,214.179 329.499,218.845 329,223.5C 324.333,224.833 319.667,224.833 315,223.5C 314.501,218.845 314.334,214.179 314.5,209.5C 309.5,209.5 304.5,209.5 299.5,209.5C 299.5,204.5 299.5,199.5 299.5,194.5C 294.5,194.5 289.5,194.5 284.5,194.5C 284.5,189.5 284.5,184.5 284.5,179.5C 278.797,179.375 273.13,179.708 267.5,180.5C 282.976,162.897 301.976,157.73 324.5,165C 331.168,168.162 337.168,172.329 342.5,177.5C 352.523,174.825 362.189,171.158 371.5,166.5C 372.583,167.365 372.749,168.365 372,169.5C 367.929,179.165 361.429,186.665 352.5,192C 352.728,192.399 353.062,192.565 353.5,192.5 Z"/></g>
<g><path style="opacity:1" fill="#dddddd" d="M -0.5,164.5 C 4.5,164.5 9.5,164.5 14.5,164.5C 14.5,169.5 14.5,174.5 14.5,179.5C 9.5,179.5 4.5,179.5 -0.5,179.5C -0.5,174.5 -0.5,169.5 -0.5,164.5 Z"/></g>
<g><path style="opacity:1" fill="#dddddd" d="M 29.5,164.5 C 34.5,164.5 39.5,164.5 44.5,164.5C 44.5,169.5 44.5,174.5 44.5,179.5C 39.5,179.5 34.5,179.5 29.5,179.5C 29.5,174.5 29.5,169.5 29.5,164.5 Z"/></g>
<g><path style="opacity:1" fill="#eaeaea" d="M 195.5,204.5 C 194.761,204.369 194.094,204.536 193.5,205C 194.38,206.356 194.714,207.856 194.5,209.5C 189.5,209.5 184.5,209.5 179.5,209.5C 179.666,214.179 179.499,218.845 179,223.5C 174.263,224.469 169.43,224.803 164.5,224.5C 164.5,219.5 164.5,214.5 164.5,209.5C 160.069,209.769 155.735,209.436 151.5,208.5C 149.017,199.696 148.851,190.696 151,181.5C 152.139,177.888 153.806,174.554 156,171.5C 167.262,184.941 180.428,195.941 195.5,204.5 Z"/></g>
<g><path style="opacity:1" fill="#dddddd" d="M 14.5,179.5 C 19.5,179.5 24.5,179.5 29.5,179.5C 29.5,184.5 29.5,189.5 29.5,194.5C 24.8215,194.666 20.1548,194.499 15.5,194C 14.5308,189.263 14.1975,184.43 14.5,179.5 Z"/></g>
<g><path style="opacity:1" fill="#dedede" d="M 44.5,179.5 C 47.5,179.5 50.5,179.5 53.5,179.5C 53.5,184.5 53.5,189.5 53.5,194.5C 50.5,194.5 47.5,194.5 44.5,194.5C 44.5,189.5 44.5,184.5 44.5,179.5 Z"/></g>
<g><path style="opacity:1" fill="#dddddd" d="M -0.5,194.5 C 4.5,194.5 9.5,194.5 14.5,194.5C 14.5,199.5 14.5,204.5 14.5,209.5C 9.5,209.5 4.5,209.5 -0.5,209.5C -0.5,204.5 -0.5,199.5 -0.5,194.5 Z"/></g>
<g><path style="opacity:1" fill="#fefefe" d="M -0.5,179.5 C 4.5,179.5 9.5,179.5 14.5,179.5C 14.1975,184.43 14.5308,189.263 15.5,194C 20.1548,194.499 24.8215,194.666 29.5,194.5C 29.5,199.5 29.5,204.5 29.5,209.5C 34.5,209.5 39.5,209.5 44.5,209.5C 44.6658,214.179 44.4992,218.845 44,223.5C 39.2633,224.469 34.43,224.803 29.5,224.5C 29.5,229.5 29.5,234.5 29.5,239.5C 24.5,239.5 19.5,239.5 14.5,239.5C 14.5,234.5 14.5,229.5 14.5,224.5C 9.5,224.5 4.5,224.5 -0.5,224.5C -0.5,219.5 -0.5,214.5 -0.5,209.5C 4.5,209.5 9.5,209.5 14.5,209.5C 14.5,204.5 14.5,199.5 14.5,194.5C 9.5,194.5 4.5,194.5 -0.5,194.5C -0.5,189.5 -0.5,184.5 -0.5,179.5 Z"/></g>
<g><path style="opacity:1" fill="#dddddd" d="M 29.5,194.5 C 34.43,194.197 39.2633,194.531 44,195.5C 44.4992,200.155 44.6658,204.821 44.5,209.5C 39.5,209.5 34.5,209.5 29.5,209.5C 29.5,204.5 29.5,199.5 29.5,194.5 Z"/></g>
<g><path style="opacity:1" fill="#fcfcfc" d="M 299.5,209.5 C 294.5,209.5 289.5,209.5 284.5,209.5C 284.666,204.821 284.499,200.155 284,195.5C 279.263,194.531 274.43,194.197 269.5,194.5C 269.5,199.5 269.5,204.5 269.5,209.5C 265.5,209.5 261.5,209.5 257.5,209.5C 257.5,207.833 257.5,206.167 257.5,204.5C 258.675,195.497 262.009,187.497 267.5,180.5C 273.13,179.708 278.797,179.375 284.5,179.5C 284.5,184.5 284.5,189.5 284.5,194.5C 289.5,194.5 294.5,194.5 299.5,194.5C 299.5,199.5 299.5,204.5 299.5,209.5 Z"/></g>
<g><path style="opacity:1" fill="#dddddd" d="M 284.5,209.5 C 279.5,209.5 274.5,209.5 269.5,209.5C 269.5,204.5 269.5,199.5 269.5,194.5C 274.43,194.197 279.263,194.531 284,195.5C 284.499,200.155 284.666,204.821 284.5,209.5 Z"/></g>
<g><path style="opacity:1" fill="#dddddd" d="M 29.5,209.5 C 29.6658,214.179 29.4992,218.845 29,223.5C 24.5868,224.632 20.0868,224.799 15.5,224C 14.3676,219.587 14.2009,215.087 15,210.5C 19.7367,209.531 24.57,209.197 29.5,209.5 Z"/></g>
<g><path style="opacity:1" fill="#e8e8e8" d="M 205.5,209.5 C 215.659,213.774 225.992,217.441 236.5,220.5C 235.761,220.369 235.094,220.536 234.5,221C 236.619,221.098 238.286,221.931 239.5,223.5C 244.456,224.494 249.456,224.827 254.5,224.5C 254.5,229.5 254.5,234.5 254.5,239.5C 259.5,239.5 264.5,239.5 269.5,239.5C 269.5,244.5 269.5,249.5 269.5,254.5C 264.5,254.5 259.5,254.5 254.5,254.5C 254.5,259.5 254.5,264.5 254.5,269.5C 249.5,269.5 244.5,269.5 239.5,269.5C 239.5,264.5 239.5,259.5 239.5,254.5C 234.5,254.5 229.5,254.5 224.5,254.5C 224.5,249.5 224.5,244.5 224.5,239.5C 219.5,239.5 214.5,239.5 209.5,239.5C 209.5,234.5 209.5,229.5 209.5,224.5C 204.57,224.803 199.737,224.469 195,223.5C 194.333,219.167 194.333,214.833 195,210.5C 198.65,209.686 202.15,209.352 205.5,209.5 Z"/></g>
<g><path style="opacity:1" fill="#dbdbdb" d="M 257.5,204.5 C 257.5,206.167 257.5,207.833 257.5,209.5C 261.5,209.5 265.5,209.5 269.5,209.5C 269.666,214.179 269.499,218.845 269,223.5C 264.587,224.632 260.087,224.799 255.5,224C 257.167,223.667 258.833,223.333 260.5,223C 259.552,222.517 258.552,222.351 257.5,222.5C 256.336,216.349 256.336,210.349 257.5,204.5 Z"/></g>
<g><path style="opacity:1" fill="#dddddd" d="M -0.5,224.5 C 4.5,224.5 9.5,224.5 14.5,224.5C 14.5,229.5 14.5,234.5 14.5,239.5C 9.5,239.5 4.5,239.5 -0.5,239.5C -0.5,234.5 -0.5,229.5 -0.5,224.5 Z"/></g>
<g><path style="opacity:1" fill="#dddddd" d="M 44.5,209.5 C 47.5,209.5 50.5,209.5 53.5,209.5C 53.6658,214.179 53.4992,218.845 53,223.5C 50.2809,224.444 47.4475,224.777 44.5,224.5C 44.5,229.5 44.5,234.5 44.5,239.5C 39.5,239.5 34.5,239.5 29.5,239.5C 29.5,234.5 29.5,229.5 29.5,224.5C 34.43,224.803 39.2633,224.469 44,223.5C 44.4992,218.845 44.6658,214.179 44.5,209.5 Z"/></g>
<g><path style="opacity:1" fill="#fefefe" d="M 269.5,209.5 C 274.5,209.5 279.5,209.5 284.5,209.5C 284.666,214.179 284.499,218.845 284,223.5C 279.263,224.469 274.43,224.803 269.5,224.5C 269.5,229.5 269.5,234.5 269.5,239.5C 264.5,239.5 259.5,239.5 254.5,239.5C 254.5,234.5 254.5,229.5 254.5,224.5C 249.456,224.827 244.456,224.494 239.5,223.5C 238.286,221.931 236.619,221.098 234.5,221C 235.094,220.536 235.761,220.369 236.5,220.5C 243.5,221.167 250.5,221.833 257.5,222.5C 258.552,222.351 259.552,222.517 260.5,223C 258.833,223.333 257.167,223.667 255.5,224C 260.087,224.799 264.587,224.632 269,223.5C 269.499,218.845 269.666,214.179 269.5,209.5 Z"/></g>
<g><path style="opacity:1" fill="#dddddd" d="M 284.5,209.5 C 289.5,209.5 294.5,209.5 299.5,209.5C 299.666,214.179 299.499,218.845 299,223.5C 294.263,224.469 289.43,224.803 284.5,224.5C 284.5,229.5 284.5,234.5 284.5,239.5C 279.5,239.5 274.5,239.5 269.5,239.5C 269.5,234.5 269.5,229.5 269.5,224.5C 274.43,224.803 279.263,224.469 284,223.5C 284.499,218.845 284.666,214.179 284.5,209.5 Z"/></g>
<g><path style="opacity:1" fill="#fcfcfc" d="M 353.5,192.5 C 362.423,190.936 371.09,188.769 379.5,186C 372.677,195.156 364.843,203.323 356,210.5C 355.654,220.55 354.821,230.55 353.5,240.5C 350.609,239.597 347.609,239.264 344.5,239.5C 344.666,234.821 344.499,230.155 344,225.5C 339.263,224.531 334.43,224.197 329.5,224.5C 329.5,229.5 329.5,234.5 329.5,239.5C 324.5,239.5 319.5,239.5 314.5,239.5C 314.5,234.5 314.5,229.5 314.5,224.5C 309.5,224.5 304.5,224.5 299.5,224.5C 299.5,229.5 299.5,234.5 299.5,239.5C 294.5,239.5 289.5,239.5 284.5,239.5C 284.5,234.5 284.5,229.5 284.5,224.5C 289.43,224.803 294.263,224.469 299,223.5C 299.499,218.845 299.666,214.179 299.5,209.5C 304.5,209.5 309.5,209.5 314.5,209.5C 314.334,214.179 314.501,218.845 315,223.5C 319.667,224.833 324.333,224.833 329,223.5C 329.499,218.845 329.666,214.179 329.5,209.5C 334.179,209.666 338.845,209.499 343.5,209C 344.833,204.333 344.833,199.667 343.5,195C 338.845,194.501 334.179,194.334 329.5,194.5C 329.5,189.5 329.5,184.5 329.5,179.5C 334.5,179.5 339.5,179.5 344.5,179.5C 344.5,184.5 344.5,189.5 344.5,194.5C 348.012,195.055 351.012,194.388 353.5,192.5 Z"/></g>
<g><path style="opacity:1" fill="#dddddd" d="M 314.5,239.5 C 309.5,239.5 304.5,239.5 299.5,239.5C 299.5,234.5 299.5,229.5 299.5,224.5C 304.5,224.5 309.5,224.5 314.5,224.5C 314.5,229.5 314.5,234.5 314.5,239.5 Z"/></g>
<g><path style="opacity:1" fill="#dddddd" d="M 344.5,209.5 C 347.833,209.5 351.167,209.5 354.5,209.5C 354.942,214.691 354.442,219.691 353,224.5C 350.437,224.659 347.77,224.325 345,223.5C 344.501,218.845 344.334,214.179 344.5,209.5 Z"/></g>
<g><path style="opacity:1" fill="#dddddd" d="M 344.5,239.5 C 339.5,239.5 334.5,239.5 329.5,239.5C 329.5,234.5 329.5,229.5 329.5,224.5C 334.43,224.197 339.263,224.531 344,225.5C 344.499,230.155 344.666,234.821 344.5,239.5 Z"/></g>
<g><path style="opacity:1" fill="#fefefe" d="M -0.5,239.5 C 4.5,239.5 9.5,239.5 14.5,239.5C 14.5,244.5 14.5,249.5 14.5,254.5C 9.5,254.5 4.5,254.5 -0.5,254.5C -0.5,249.5 -0.5,244.5 -0.5,239.5 Z"/></g>
<g><path style="opacity:1" fill="#dddddd" d="M 14.5,239.5 C 19.5,239.5 24.5,239.5 29.5,239.5C 29.5,244.5 29.5,249.5 29.5,254.5C 24.5,254.5 19.5,254.5 14.5,254.5C 14.5,249.5 14.5,244.5 14.5,239.5 Z"/></g>
<g><path style="opacity:1" fill="#dddddd" d="M 44.5,239.5 C 47.5,239.5 50.5,239.5 53.5,239.5C 53.5,244.5 53.5,249.5 53.5,254.5C 50.5,254.5 47.5,254.5 44.5,254.5C 44.5,249.5 44.5,244.5 44.5,239.5 Z"/></g>
<g><path style="opacity:1" fill="#dddddd" d="M -0.5,254.5 C 4.5,254.5 9.5,254.5 14.5,254.5C 14.5,259.5 14.5,264.5 14.5,269.5C 9.5,269.5 4.5,269.5 -0.5,269.5C -0.5,264.5 -0.5,259.5 -0.5,254.5 Z"/></g>
<g><path style="opacity:1" fill="#dddddd" d="M 29.5,269.5 C 29.3342,264.821 29.5008,260.155 30,255.5C 34.4132,254.368 38.9132,254.201 43.5,255C 44.6324,259.413 44.7991,263.913 44,268.5C 39.2633,269.469 34.43,269.803 29.5,269.5 Z"/></g>
<g><path style="opacity:1" fill="#fefefe" d="M 269.5,239.5 C 274.5,239.5 279.5,239.5 284.5,239.5C 284.5,244.5 284.5,249.5 284.5,254.5C 289.5,254.5 294.5,254.5 299.5,254.5C 299.5,249.5 299.5,244.5 299.5,239.5C 304.5,239.5 309.5,239.5 314.5,239.5C 314.173,244.214 314.507,248.88 315.5,253.5C 320.1,254.443 324.767,254.777 329.5,254.5C 329.5,249.5 329.5,244.5 329.5,239.5C 334.5,239.5 339.5,239.5 344.5,239.5C 344.666,244.179 344.499,248.845 344,253.5C 339.333,254.167 334.667,254.833 330,255.5C 329.501,260.155 329.334,264.821 329.5,269.5C 324.5,269.5 319.5,269.5 314.5,269.5C 314.666,264.821 314.499,260.155 314,255.5C 309.333,254.167 304.667,254.167 300,255.5C 299.501,260.155 299.334,264.821 299.5,269.5C 294.5,269.5 289.5,269.5 284.5,269.5C 284.5,274.5 284.5,279.5 284.5,284.5C 279.5,284.5 274.5,284.5 269.5,284.5C 269.5,289.5 269.5,294.5 269.5,299.5C 264.5,299.5 259.5,299.5 254.5,299.5C 254.5,294.5 254.5,289.5 254.5,284.5C 249.5,284.5 244.5,284.5 239.5,284.5C 239.5,279.5 239.5,274.5 239.5,269.5C 244.5,269.5 249.5,269.5 254.5,269.5C 254.5,264.5 254.5,259.5 254.5,254.5C 259.5,254.5 264.5,254.5 269.5,254.5C 269.5,249.5 269.5,244.5 269.5,239.5 Z"/></g>
<g><path style="opacity:1" fill="#dddddd" d="M 269.5,269.5 C 269.334,264.821 269.501,260.155 270,255.5C 274.413,254.368 278.913,254.201 283.5,255C 284.632,259.413 284.799,263.913 284,268.5C 279.263,269.469 274.43,269.803 269.5,269.5 Z"/></g>
<g><path style="opacity:1" fill="#dddddd" d="M 314.5,239.5 C 319.5,239.5 324.5,239.5 329.5,239.5C 329.5,244.5 329.5,249.5 329.5,254.5C 324.767,254.777 320.1,254.443 315.5,253.5C 314.507,248.88 314.173,244.214 314.5,239.5 Z"/></g>
<g><path style="opacity:1" fill="#dddddd" d="M 284.5,239.5 C 289.5,239.5 294.5,239.5 299.5,239.5C 299.5,244.5 299.5,249.5 299.5,254.5C 294.5,254.5 289.5,254.5 284.5,254.5C 284.5,249.5 284.5,244.5 284.5,239.5 Z"/></g>
<g><path style="opacity:1" fill="#dddddd" d="M 314.5,269.5 C 309.5,269.5 304.5,269.5 299.5,269.5C 299.334,264.821 299.501,260.155 300,255.5C 304.667,254.167 309.333,254.167 314,255.5C 314.499,260.155 314.666,264.821 314.5,269.5 Z"/></g>
<g><path style="opacity:1" fill="#dfdfdf" d="M 344.5,239.5 C 347.609,239.264 350.609,239.597 353.5,240.5C 351.879,250.669 348.879,260.335 344.5,269.5C 339.809,269.408 334.809,269.408 329.5,269.5C 329.334,264.821 329.501,260.155 330,255.5C 334.667,254.833 339.333,254.167 344,253.5C 344.499,248.845 344.666,244.179 344.5,239.5 Z"/></g>
<g><path style="opacity:1" fill="#dddddd" d="M 29.5,269.5 C 29.5,274.5 29.5,279.5 29.5,284.5C 24.8215,284.666 20.1548,284.499 15.5,284C 14.1667,279.333 14.1667,274.667 15.5,270C 20.1548,269.501 24.8215,269.334 29.5,269.5 Z"/></g>
<g><path style="opacity:1" fill="#fbfbfb" d="M 195.5,204.5 C 198.833,206.167 202.167,207.833 205.5,209.5C 202.15,209.352 198.65,209.686 195,210.5C 194.333,214.833 194.333,219.167 195,223.5C 199.737,224.469 204.57,224.803 209.5,224.5C 209.5,229.5 209.5,234.5 209.5,239.5C 214.5,239.5 219.5,239.5 224.5,239.5C 224.5,244.5 224.5,249.5 224.5,254.5C 229.5,254.5 234.5,254.5 239.5,254.5C 239.5,259.5 239.5,264.5 239.5,269.5C 234.5,269.5 229.5,269.5 224.5,269.5C 224.5,274.5 224.5,279.5 224.5,284.5C 219.5,284.5 214.5,284.5 209.5,284.5C 209.5,289.5 209.5,294.5 209.5,299.5C 204.5,299.5 199.5,299.5 194.5,299.5C 194.335,302.85 194.502,306.183 195,309.5C 195.995,310.066 196.828,310.733 197.5,311.5C 184.148,306.99 174.314,298.323 168,285.5C 167.212,283.835 166.878,282.169 167,280.5C 173.804,281.743 180.637,281.577 187.5,280C 163.013,272.518 150.18,256.018 149,230.5C 155.609,234.61 162.775,236.444 170.5,236C 160.795,229.134 154.461,219.967 151.5,208.5C 155.735,209.436 160.069,209.769 164.5,209.5C 164.5,214.5 164.5,219.5 164.5,224.5C 169.43,224.803 174.263,224.469 179,223.5C 179.499,218.845 179.666,214.179 179.5,209.5C 184.5,209.5 189.5,209.5 194.5,209.5C 194.714,207.856 194.38,206.356 193.5,205C 194.094,204.536 194.761,204.369 195.5,204.5 Z"/></g>
<g><path style="opacity:1" fill="#dddddd" d="M 194.5,269.5 C 199.5,269.5 204.5,269.5 209.5,269.5C 209.666,274.179 209.499,278.845 209,283.5C 204.333,284.833 199.667,284.833 195,283.5C 194.501,278.845 194.334,274.179 194.5,269.5 Z"/></g>
<g><path style="opacity:1" fill="#dddddd" d="M 209.5,269.5 C 209.334,264.821 209.501,260.155 210,255.5C 214.413,254.368 218.913,254.201 223.5,255C 224.632,259.413 224.799,263.913 224,268.5C 219.263,269.469 214.43,269.803 209.5,269.5 Z"/></g>
<g><path style="opacity:1" fill="#dddddd" d="M 194.5,269.5 C 189.5,269.5 184.5,269.5 179.5,269.5C 179.334,264.821 179.501,260.155 180,255.5C 184.667,254.167 189.333,254.167 194,255.5C 194.499,260.155 194.666,264.821 194.5,269.5 Z"/></g>
<g><path style="opacity:1" fill="#dddddd" d="M 194.5,239.5 C 199.5,239.5 204.5,239.5 209.5,239.5C 209.5,244.5 209.5,249.5 209.5,254.5C 204.767,254.777 200.1,254.443 195.5,253.5C 194.507,248.88 194.173,244.214 194.5,239.5 Z"/></g>
<g><path style="opacity:1" fill="#dddddd" d="M 179.5,239.5 C 179.5,244.5 179.5,249.5 179.5,254.5C 174.5,254.5 169.5,254.5 164.5,254.5C 164.5,249.5 164.5,244.5 164.5,239.5C 169.5,239.5 174.5,239.5 179.5,239.5 Z"/></g>
<g><path style="opacity:1" fill="#dddddd" d="M 194.5,239.5 C 189.5,239.5 184.5,239.5 179.5,239.5C 179.5,234.5 179.5,229.5 179.5,224.5C 184.5,224.5 189.5,224.5 194.5,224.5C 194.5,229.5 194.5,234.5 194.5,239.5 Z"/></g>
<g><path style="opacity:1" fill="#dddddd" d="M 239.5,269.5 C 239.5,274.5 239.5,279.5 239.5,284.5C 234.5,284.5 229.5,284.5 224.5,284.5C 224.5,279.5 224.5,274.5 224.5,269.5C 229.5,269.5 234.5,269.5 239.5,269.5 Z"/></g>
<g><path style="opacity:1" fill="#dddddd" d="M 269.5,269.5 C 269.5,274.5 269.5,279.5 269.5,284.5C 264.821,284.666 260.155,284.499 255.5,284C 254.167,279.333 254.167,274.667 255.5,270C 260.155,269.501 264.821,269.334 269.5,269.5 Z"/></g>
<g><path style="opacity:1" fill="#dddddd" d="M 299.5,269.5 C 299.5,274.5 299.5,279.5 299.5,284.5C 294.5,284.5 289.5,284.5 284.5,284.5C 284.5,279.5 284.5,274.5 284.5,269.5C 289.5,269.5 294.5,269.5 299.5,269.5 Z"/></g>
<g><path style="opacity:1" fill="#fefefe" d="M 299.5,269.5 C 304.5,269.5 309.5,269.5 314.5,269.5C 314.5,274.5 314.5,279.5 314.5,284.5C 309.5,284.5 304.5,284.5 299.5,284.5C 299.5,279.5 299.5,274.5 299.5,269.5 Z"/></g>
<g><path style="opacity:1" fill="#dddddd" d="M 314.5,269.5 C 319.5,269.5 324.5,269.5 329.5,269.5C 329.5,274.5 329.5,279.5 329.5,284.5C 324.5,284.5 319.5,284.5 314.5,284.5C 314.5,279.5 314.5,274.5 314.5,269.5 Z"/></g>
<g><path style="opacity:1" fill="#dedede" d="M 44.5,284.5 C 44.5,279.5 44.5,274.5 44.5,269.5C 47.5,269.5 50.5,269.5 53.5,269.5C 53.5,274.5 53.5,279.5 53.5,284.5C 50.5,284.5 47.5,284.5 44.5,284.5 Z"/></g>
<g><path style="opacity:1" fill="#dddddd" d="M -0.5,284.5 C 4.5,284.5 9.5,284.5 14.5,284.5C 14.5,289.5 14.5,294.5 14.5,299.5C 9.5,299.5 4.5,299.5 -0.5,299.5C -0.5,294.5 -0.5,289.5 -0.5,284.5 Z"/></g>
<g><path style="opacity:1" fill="#dddddd" d="M 29.5,284.5 C 34.5,284.5 39.5,284.5 44.5,284.5C 44.5,289.5 44.5,294.5 44.5,299.5C 39.5,299.5 34.5,299.5 29.5,299.5C 29.5,294.5 29.5,289.5 29.5,284.5 Z"/></g>
<g><path style="opacity:1" fill="#dcdcdc" d="M 194.5,299.5 C 181.14,302.475 176.473,297.475 180.5,284.5C 185.167,284.5 189.833,284.5 194.5,284.5C 194.5,289.5 194.5,294.5 194.5,299.5 Z"/></g>
<g><path style="opacity:1" fill="#dddddd" d="M 224.5,284.5 C 224.5,289.5 224.5,294.5 224.5,299.5C 219.5,299.5 214.5,299.5 209.5,299.5C 209.5,294.5 209.5,289.5 209.5,284.5C 214.5,284.5 219.5,284.5 224.5,284.5 Z"/></g>
<g><path style="opacity:1" fill="#fefefe" d="M 224.5,284.5 C 229.5,284.5 234.5,284.5 239.5,284.5C 239.5,289.5 239.5,294.5 239.5,299.5C 234.5,299.5 229.5,299.5 224.5,299.5C 224.5,294.5 224.5,289.5 224.5,284.5 Z"/></g>
<g><path style="opacity:1" fill="#dddddd" d="M 239.5,284.5 C 244.5,284.5 249.5,284.5 254.5,284.5C 254.5,289.5 254.5,294.5 254.5,299.5C 249.5,299.5 244.5,299.5 239.5,299.5C 239.5,294.5 239.5,289.5 239.5,284.5 Z"/></g>
<g><path style="opacity:1" fill="#dddddd" d="M 269.5,284.5 C 274.5,284.5 279.5,284.5 284.5,284.5C 284.5,289.5 284.5,294.5 284.5,299.5C 279.5,299.5 274.5,299.5 269.5,299.5C 269.5,294.5 269.5,289.5 269.5,284.5 Z"/></g>
<g><path style="opacity:1" fill="#fefefe" d="M 284.5,284.5 C 289.5,284.5 294.5,284.5 299.5,284.5C 299.5,289.5 299.5,294.5 299.5,299.5C 294.5,299.5 289.5,299.5 284.5,299.5C 284.5,294.5 284.5,289.5 284.5,284.5 Z"/></g>
<g><path style="opacity:1" fill="#dddddd" d="M 299.5,284.5 C 304.5,284.5 309.5,284.5 314.5,284.5C 314.5,289.5 314.5,294.5 314.5,299.5C 309.5,299.5 304.5,299.5 299.5,299.5C 299.5,294.5 299.5,289.5 299.5,284.5 Z"/></g>
<g><path style="opacity:1" fill="#fbfbfb" d="M 344.5,269.5 C 340.399,280.238 335.066,290.238 328.5,299.5C 323.833,299.5 319.167,299.5 314.5,299.5C 314.5,294.5 314.5,289.5 314.5,284.5C 319.5,284.5 324.5,284.5 329.5,284.5C 329.5,279.5 329.5,274.5 329.5,269.5C 334.809,269.408 339.809,269.408 344.5,269.5 Z"/></g>
<g><path style="opacity:1" fill="#dddddd" d="M 14.5,299.5 C 19.5,299.5 24.5,299.5 29.5,299.5C 29.5,304.5 29.5,309.5 29.5,314.5C 24.8215,314.666 20.1548,314.499 15.5,314C 14.5308,309.263 14.1975,304.43 14.5,299.5 Z"/></g>
<g><path style="opacity:1" fill="#dedede" d="M 44.5,299.5 C 47.5,299.5 50.5,299.5 53.5,299.5C 53.5,304.5 53.5,309.5 53.5,314.5C 50.5,314.5 47.5,314.5 44.5,314.5C 44.5,309.5 44.5,304.5 44.5,299.5 Z"/></g>
<g><path style="opacity:1" fill="#dcdcdc" d="M 194.5,299.5 C 199.5,299.5 204.5,299.5 209.5,299.5C 210.026,304.807 209.36,309.807 207.5,314.5C 203.829,314.243 200.495,313.243 197.5,311.5C 196.828,310.733 195.995,310.066 195,309.5C 194.502,306.183 194.335,302.85 194.5,299.5 Z"/></g>
<g><path style="opacity:1" fill="#dddddd" d="M 224.5,299.5 C 229.5,299.5 234.5,299.5 239.5,299.5C 239.5,304.5 239.5,309.5 239.5,314.5C 234.5,314.5 229.5,314.5 224.5,314.5C 224.5,309.5 224.5,304.5 224.5,299.5 Z"/></g>
<g><path style="opacity:1" fill="#dddddd" d="M 284.5,299.5 C 289.5,299.5 294.5,299.5 299.5,299.5C 299.5,304.5 299.5,309.5 299.5,314.5C 294.5,314.5 289.5,314.5 284.5,314.5C 284.5,309.5 284.5,304.5 284.5,299.5 Z"/></g>
<g><path style="opacity:1" fill="#fefefe" d="M 299.5,299.5 C 304.5,299.5 309.5,299.5 314.5,299.5C 314.267,304.895 314.6,310.228 315.5,315.5C 310.228,314.6 304.895,314.267 299.5,314.5C 299.5,309.5 299.5,304.5 299.5,299.5 Z"/></g>
<g><path style="opacity:1" fill="#dcdcdc" d="M 314.5,299.5 C 319.167,299.5 323.833,299.5 328.5,299.5C 324.894,305.438 320.561,310.771 315.5,315.5C 314.6,310.228 314.267,304.895 314.5,299.5 Z"/></g>
<g><path style="opacity:1" fill="#dddddd" d="M -0.5,314.5 C 4.5,314.5 9.5,314.5 14.5,314.5C 14.5,319.5 14.5,324.5 14.5,329.5C 9.5,329.5 4.5,329.5 -0.5,329.5C -0.5,324.5 -0.5,319.5 -0.5,314.5 Z"/></g>
<g><path style="opacity:1" fill="#fefefe" d="M -0.5,299.5 C 4.5,299.5 9.5,299.5 14.5,299.5C 14.1975,304.43 14.5308,309.263 15.5,314C 20.1548,314.499 24.8215,314.666 29.5,314.5C 29.5,319.5 29.5,324.5 29.5,329.5C 34.5,329.5 39.5,329.5 44.5,329.5C 44.6658,334.179 44.4992,338.845 44,343.5C 39.2633,344.469 34.43,344.803 29.5,344.5C 29.5,349.5 29.5,354.5 29.5,359.5C 24.5,359.5 19.5,359.5 14.5,359.5C 14.5,354.5 14.5,349.5 14.5,344.5C 9.5,344.5 4.5,344.5 -0.5,344.5C -0.5,339.5 -0.5,334.5 -0.5,329.5C 4.5,329.5 9.5,329.5 14.5,329.5C 14.5,324.5 14.5,319.5 14.5,314.5C 9.5,314.5 4.5,314.5 -0.5,314.5C -0.5,309.5 -0.5,304.5 -0.5,299.5 Z"/></g>
<g><path style="opacity:1" fill="#dddddd" d="M 29.5,314.5 C 34.43,314.197 39.2633,314.531 44,315.5C 44.4992,320.155 44.6658,324.821 44.5,329.5C 39.5,329.5 34.5,329.5 29.5,329.5C 29.5,324.5 29.5,319.5 29.5,314.5 Z"/></g>
<g><path style="opacity:1" fill="#dddddd" d="M 239.5,314.5 C 244.5,314.5 249.5,314.5 254.5,314.5C 254.5,319.5 254.5,324.5 254.5,329.5C 249.5,329.5 244.5,329.5 239.5,329.5C 239.5,324.5 239.5,319.5 239.5,314.5 Z"/></g>
<g><path style="opacity:1" fill="#dadada" d="M 299.5,314.5 C 304.895,314.267 310.228,314.6 315.5,315.5C 311.391,320.948 306.391,325.281 300.5,328.5C 299.559,323.93 299.226,319.263 299.5,314.5 Z"/></g>
<g><path style="opacity:1" fill="#fbfbfb" d="M 239.5,299.5 C 244.5,299.5 249.5,299.5 254.5,299.5C 254.334,304.179 254.501,308.845 255,313.5C 259.737,314.469 264.57,314.803 269.5,314.5C 269.5,309.5 269.5,304.5 269.5,299.5C 274.5,299.5 279.5,299.5 284.5,299.5C 284.5,304.5 284.5,309.5 284.5,314.5C 289.5,314.5 294.5,314.5 299.5,314.5C 299.226,319.263 299.559,323.93 300.5,328.5C 287.373,339.565 272.373,347.231 255.5,351.5C 254.532,349.393 254.198,347.059 254.5,344.5C 249.5,344.5 244.5,344.5 239.5,344.5C 239.5,339.5 239.5,334.5 239.5,329.5C 244.5,329.5 249.5,329.5 254.5,329.5C 254.5,324.5 254.5,319.5 254.5,314.5C 249.5,314.5 244.5,314.5 239.5,314.5C 239.5,309.5 239.5,304.5 239.5,299.5 Z"/></g>
<g><path style="opacity:1" fill="#dddddd" d="M 269.5,314.5 C 274.179,314.334 278.845,314.501 283.5,315C 284.469,319.737 284.803,324.57 284.5,329.5C 279.5,329.5 274.5,329.5 269.5,329.5C 269.5,324.5 269.5,319.5 269.5,314.5 Z"/></g>
<g><path style="opacity:1" fill="#dddddd" d="M 254.5,299.5 C 259.5,299.5 264.5,299.5 269.5,299.5C 269.5,304.5 269.5,309.5 269.5,314.5C 264.57,314.803 259.737,314.469 255,313.5C 254.501,308.845 254.334,304.179 254.5,299.5 Z"/></g>
<g><path style="opacity:1" fill="#dddddd" d="M 29.5,329.5 C 29.6658,334.179 29.4992,338.845 29,343.5C 24.5868,344.632 20.0868,344.799 15.5,344C 14.3676,339.587 14.2009,335.087 15,330.5C 19.7367,329.531 24.57,329.197 29.5,329.5 Z"/></g>
<g><path style="opacity:1" fill="#e1e1e1" d="M 211.5,314.5 C 215.581,314.384 219.748,314.717 224,315.5C 224.667,319.833 224.667,324.167 224,328.5C 219.263,329.469 214.43,329.803 209.5,329.5C 209.666,334.179 209.499,338.845 209,343.5C 204.333,344.833 199.667,344.833 195,343.5C 194.501,338.845 194.334,334.179 194.5,329.5C 192.784,329.371 191.117,329.038 189.5,328.5C 194.669,325.531 200.003,322.698 205.5,320C 207.996,318.669 209.996,316.836 211.5,314.5 Z"/></g>
<g><path style="opacity:1" fill="#dddddd" d="M 239.5,329.5 C 239.5,334.5 239.5,339.5 239.5,344.5C 234.821,344.666 230.155,344.499 225.5,344C 224.531,339.263 224.197,334.43 224.5,329.5C 229.5,329.5 234.5,329.5 239.5,329.5 Z"/></g>
<g><path style="opacity:1" fill="#dddddd" d="M 269.5,329.5 C 269.666,334.179 269.499,338.845 269,343.5C 264.587,344.632 260.087,344.799 255.5,344C 254.368,339.587 254.201,335.087 255,330.5C 259.737,329.531 264.57,329.197 269.5,329.5 Z"/></g>
<g><path style="opacity:1" fill="#dbdbdb" d="M 178.5,332.5 C 179.8,336.334 179.8,340.168 178.5,344C 174.167,344.667 169.833,344.667 165.5,344C 163.923,341.043 164.256,338.376 166.5,336C 165.906,335.536 165.239,335.369 164.5,335.5C 168.994,334.266 173.661,333.266 178.5,332.5 Z"/></g>
<g><path style="opacity:1" fill="#dddddd" d="M -0.5,344.5 C 4.5,344.5 9.5,344.5 14.5,344.5C 14.5,349.5 14.5,354.5 14.5,359.5C 9.5,359.5 4.5,359.5 -0.5,359.5C -0.5,354.5 -0.5,349.5 -0.5,344.5 Z"/></g>
<g><path style="opacity:1" fill="#dddddd" d="M 44.5,329.5 C 47.5,329.5 50.5,329.5 53.5,329.5C 53.6658,334.179 53.4992,338.845 53,343.5C 50.2809,344.444 47.4475,344.777 44.5,344.5C 44.5,349.5 44.5,354.5 44.5,359.5C 39.5,359.5 34.5,359.5 29.5,359.5C 29.5,354.5 29.5,349.5 29.5,344.5C 34.43,344.803 39.2633,344.469 44,343.5C 44.4992,338.845 44.6658,334.179 44.5,329.5 Z"/></g>
<g><path style="opacity:1" fill="#dddddd" d="M 191.5,355.5 C 187.264,354.992 183.264,353.992 179.5,352.5C 179.684,350.144 179.684,347.477 179.5,344.5C 184.5,344.5 189.5,344.5 194.5,344.5C 194.5,347.833 194.5,351.167 194.5,354.5C 193.209,354.263 192.209,354.596 191.5,355.5 Z"/></g>
<g><path style="opacity:1" fill="#fcfcfc" d="M 209.5,299.5 C 214.5,299.5 219.5,299.5 224.5,299.5C 224.5,304.5 224.5,309.5 224.5,314.5C 229.5,314.5 234.5,314.5 239.5,314.5C 239.5,319.5 239.5,324.5 239.5,329.5C 234.5,329.5 229.5,329.5 224.5,329.5C 224.197,334.43 224.531,339.263 225.5,344C 230.155,344.499 234.821,344.666 239.5,344.5C 239.5,348.167 239.5,351.833 239.5,355.5C 235.19,356.08 230.857,356.414 226.5,356.5C 224.827,353.048 223.827,349.214 223.5,345C 218.845,344.501 214.179,344.334 209.5,344.5C 209.665,348.182 209.499,351.848 209,355.5C 206.619,356.435 204.119,356.768 201.5,356.5C 198.098,356.658 194.764,356.324 191.5,355.5C 192.209,354.596 193.209,354.263 194.5,354.5C 194.5,351.167 194.5,347.833 194.5,344.5C 189.5,344.5 184.5,344.5 179.5,344.5C 179.684,347.477 179.684,350.144 179.5,352.5C 165.524,349.233 152.524,343.733 140.5,336C 148.466,336.705 156.466,336.538 164.5,335.5C 165.239,335.369 165.906,335.536 166.5,336C 164.256,338.376 163.923,341.043 165.5,344C 169.833,344.667 174.167,344.667 178.5,344C 179.8,340.168 179.8,336.334 178.5,332.5C 182.107,331.284 185.774,329.951 189.5,328.5C 191.117,329.038 192.784,329.371 194.5,329.5C 194.334,334.179 194.501,338.845 195,343.5C 199.667,344.833 204.333,344.833 209,343.5C 209.499,338.845 209.666,334.179 209.5,329.5C 214.43,329.803 219.263,329.469 224,328.5C 224.667,324.167 224.667,319.833 224,315.5C 219.748,314.717 215.581,314.384 211.5,314.5C 210.167,314.5 208.833,314.5 207.5,314.5C 209.36,309.807 210.026,304.807 209.5,299.5 Z"/></g>
<g><path style="opacity:1" fill="#dedede" d="M 239.5,344.5 C 244.5,344.5 249.5,344.5 254.5,344.5C 254.198,347.059 254.532,349.393 255.5,351.5C 250.419,353.407 245.086,354.741 239.5,355.5C 239.5,351.833 239.5,348.167 239.5,344.5 Z"/></g>
<g><path style="opacity:1" fill="#dedede" d="M 226.5,356.5 C 218.167,357.833 209.833,357.833 201.5,356.5C 204.119,356.768 206.619,356.435 209,355.5C 209.499,351.848 209.665,348.182 209.5,344.5C 214.179,344.334 218.845,344.501 223.5,345C 223.827,349.214 224.827,353.048 226.5,356.5 Z"/></g>
<g><path style="opacity:1" fill="#fefefe" d="M -0.5,359.5 C 4.5,359.5 9.5,359.5 14.5,359.5C 14.5,364.5 14.5,369.5 14.5,374.5C 9.5,374.5 4.5,374.5 -0.5,374.5C -0.5,369.5 -0.5,364.5 -0.5,359.5 Z"/></g>
<g><path style="opacity:1" fill="#dddddd" d="M 14.5,359.5 C 19.5,359.5 24.5,359.5 29.5,359.5C 29.5,364.5 29.5,369.5 29.5,374.5C 24.5,374.5 19.5,374.5 14.5,374.5C 14.5,369.5 14.5,364.5 14.5,359.5 Z"/></g>
<g><path style="opacity:1" fill="#dddddd" d="M 44.5,359.5 C 47.5,359.5 50.5,359.5 53.5,359.5C 53.5,364.5 53.5,369.5 53.5,374.5C 50.5,374.5 47.5,374.5 44.5,374.5C 44.5,369.5 44.5,364.5 44.5,359.5 Z"/></g>
<g><path style="opacity:1" fill="#dddddd" d="M -0.5,374.5 C 4.5,374.5 9.5,374.5 14.5,374.5C 14.5,379.5 14.5,384.5 14.5,389.5C 9.5,389.5 4.5,389.5 -0.5,389.5C -0.5,384.5 -0.5,379.5 -0.5,374.5 Z"/></g>
<g><path style="opacity:1" fill="#dddddd" d="M 29.5,389.5 C 29.3342,384.821 29.5008,380.155 30,375.5C 34.4132,374.368 38.9132,374.201 43.5,375C 44.6324,379.413 44.7991,383.913 44,388.5C 39.2633,389.469 34.43,389.803 29.5,389.5 Z"/></g>
<g><path style="opacity:1" fill="#dddddd" d="M 29.5,389.5 C 29.5,394.5 29.5,399.5 29.5,404.5C 24.8215,404.666 20.1548,404.499 15.5,404C 14.1667,399.333 14.1667,394.667 15.5,390C 20.1548,389.501 24.8215,389.334 29.5,389.5 Z"/></g>
<g><path style="opacity:1" fill="#dddddd" d="M 54.5,391.5 C 55.6322,395.019 56.6322,398.686 57.5,402.5C 56.7321,403.263 56.2321,404.263 56,405.5C 52.27,404.54 48.4367,404.207 44.5,404.5C 44.5,399.5 44.5,394.5 44.5,389.5C 48.1785,389.06 51.5118,389.727 54.5,391.5 Z"/></g>
<g><path style="opacity:1" fill="#dddddd" d="M -0.5,404.5 C 4.5,404.5 9.5,404.5 14.5,404.5C 14.5,409.5 14.5,414.5 14.5,419.5C 9.5,419.5 4.5,419.5 -0.5,419.5C -0.5,414.5 -0.5,409.5 -0.5,404.5 Z"/></g>
<g><path style="opacity:1" fill="#dddddd" d="M 29.5,404.5 C 34.5,404.5 39.5,404.5 44.5,404.5C 44.5,409.5 44.5,414.5 44.5,419.5C 39.5,419.5 34.5,419.5 29.5,419.5C 29.5,414.5 29.5,409.5 29.5,404.5 Z"/></g>
<g><path style="opacity:1" fill="#dddddd" d="M 14.5,419.5 C 19.5,419.5 24.5,419.5 29.5,419.5C 29.5,424.5 29.5,429.5 29.5,434.5C 24.8215,434.666 20.1548,434.499 15.5,434C 14.5308,429.263 14.1975,424.43 14.5,419.5 Z"/></g>
<g><path style="opacity:1" fill="#dddddd" d="M 44.5,419.5 C 49.5,419.5 54.5,419.5 59.5,419.5C 59.5,424.5 59.5,429.5 59.5,434.5C 59.5,429.5 59.5,424.5 59.5,419.5C 54.5,419.5 49.5,419.5 44.5,419.5 Z"/></g>
<g><path style="opacity:1" fill="#fdfdfd" d="M 435.5,433.5 C 440.119,434.314 444.786,434.647 449.5,434.5C 449.5,439.5 449.5,444.5 449.5,449.5C 444.5,449.5 439.5,449.5 434.5,449.5C 435.044,445.327 434.377,441.494 432.5,438C 433.252,437.329 433.586,436.496 433.5,435.5C 433.833,434.5 434.5,433.833 435.5,433.5 Z"/></g>
<g><path style="opacity:1" fill="#dddddd" d="M -0.5,434.5 C 4.5,434.5 9.5,434.5 14.5,434.5C 14.5,439.5 14.5,444.5 14.5,449.5C 9.5,449.5 4.5,449.5 -0.5,449.5C -0.5,444.5 -0.5,439.5 -0.5,434.5 Z"/></g>
<g><path style="opacity:1" fill="#fefefe" d="M -0.5,419.5 C 4.5,419.5 9.5,419.5 14.5,419.5C 14.1975,424.43 14.5308,429.263 15.5,434C 20.1548,434.499 24.8215,434.666 29.5,434.5C 29.5,439.5 29.5,444.5 29.5,449.5C 34.5,449.5 39.5,449.5 44.5,449.5C 44.6658,454.179 44.4992,458.845 44,463.5C 39.2633,464.469 34.43,464.803 29.5,464.5C 29.5,469.5 29.5,474.5 29.5,479.5C 24.5,479.5 19.5,479.5 14.5,479.5C 14.5,474.5 14.5,469.5 14.5,464.5C 9.5,464.5 4.5,464.5 -0.5,464.5C -0.5,459.5 -0.5,454.5 -0.5,449.5C 4.5,449.5 9.5,449.5 14.5,449.5C 14.5,444.5 14.5,439.5 14.5,434.5C 9.5,434.5 4.5,434.5 -0.5,434.5C -0.5,429.5 -0.5,424.5 -0.5,419.5 Z"/></g>
<g><path style="opacity:1" fill="#dddddd" d="M 29.5,434.5 C 34.1785,434.334 38.8452,434.501 43.5,435C 44.4692,439.737 44.8025,444.57 44.5,449.5C 39.5,449.5 34.5,449.5 29.5,449.5C 29.5,444.5 29.5,439.5 29.5,434.5 Z"/></g>
<g><path style="opacity:1" fill="#fefefe" d="M 29.5,419.5 C 34.5,419.5 39.5,419.5 44.5,419.5C 44.5,424.5 44.5,429.5 44.5,434.5C 49.5,434.5 54.5,434.5 59.5,434.5C 59.5,439.5 59.5,444.5 59.5,449.5C 54.5,449.5 49.5,449.5 44.5,449.5C 44.8025,444.57 44.4692,439.737 43.5,435C 38.8452,434.501 34.1785,434.334 29.5,434.5C 29.5,429.5 29.5,424.5 29.5,419.5 Z"/></g>
<g><path style="opacity:1" fill="#dddddd" d="M 59.5,434.5 C 64.1785,434.334 68.8452,434.501 73.5,435C 74.4692,439.737 74.8025,444.57 74.5,449.5C 69.5,449.5 64.5,449.5 59.5,449.5C 59.5,444.5 59.5,439.5 59.5,434.5 Z"/></g>
<g><path style="opacity:1" fill="#dddddd" d="M 449.5,434.5 C 454.179,434.334 458.845,434.501 463.5,435C 464.833,439.667 464.833,444.333 463.5,449C 458.845,449.499 454.179,449.666 449.5,449.5C 449.5,444.5 449.5,439.5 449.5,434.5 Z"/></g>
<g><path style="opacity:1" fill="#dddddd" d="M 479.5,434.5 C 484.5,434.5 489.5,434.5 494.5,434.5C 494.5,439.5 494.5,444.5 494.5,449.5C 489.5,449.5 484.5,449.5 479.5,449.5C 479.5,444.5 479.5,439.5 479.5,434.5 Z"/></g>
<g><path style="opacity:1" fill="#fbfbfb" d="M 57.5,402.5 C 66.0909,427.424 82.7576,444.424 107.5,453.5C 106.791,454.404 105.791,454.737 104.5,454.5C 104.216,457.777 104.549,460.943 105.5,464C 110.155,464.499 114.821,464.666 119.5,464.5C 119.5,469.5 119.5,474.5 119.5,479.5C 114.5,479.5 109.5,479.5 104.5,479.5C 104.666,474.821 104.499,470.155 104,465.5C 99.2633,464.531 94.43,464.197 89.5,464.5C 89.5,469.5 89.5,474.5 89.5,479.5C 84.5,479.5 79.5,479.5 74.5,479.5C 74.5,474.5 74.5,469.5 74.5,464.5C 69.5,464.5 64.5,464.5 59.5,464.5C 59.5,469.5 59.5,474.5 59.5,479.5C 54.5,479.5 49.5,479.5 44.5,479.5C 44.5,474.5 44.5,469.5 44.5,464.5C 49.1785,464.666 53.8452,464.499 58.5,464C 59.4692,459.263 59.8025,454.43 59.5,449.5C 64.5,449.5 69.5,449.5 74.5,449.5C 74.8025,444.57 74.4692,439.737 73.5,435C 68.8452,434.501 64.1785,434.334 59.5,434.5C 54.5,434.5 49.5,434.5 44.5,434.5C 44.5,429.5 44.5,424.5 44.5,419.5C 44.5,414.5 44.5,409.5 44.5,404.5C 48.4367,404.207 52.27,404.54 56,405.5C 56.2321,404.263 56.7321,403.263 57.5,402.5 Z"/></g>
<g><path style="opacity:1" fill="#dddddd" d="M 29.5,449.5 C 29.6658,454.179 29.4992,458.845 29,463.5C 24.5868,464.632 20.0868,464.799 15.5,464C 14.3676,459.587 14.2009,455.087 15,450.5C 19.7367,449.531 24.57,449.197 29.5,449.5 Z"/></g>
<g><path style="opacity:1" fill="#dddddd" d="M 74.5,449.5 C 79.5,449.5 84.5,449.5 89.5,449.5C 89.6658,454.179 89.4992,458.845 89,463.5C 84.3333,464.833 79.6667,464.833 75,463.5C 74.5008,458.845 74.3342,454.179 74.5,449.5 Z"/></g>
<g><path style="opacity:1" fill="#dddddd" d="M 479.5,449.5 C 479.5,454.5 479.5,459.5 479.5,464.5C 474.821,464.666 470.155,464.499 465.5,464C 464.531,459.263 464.197,454.43 464.5,449.5C 469.5,449.5 474.5,449.5 479.5,449.5 Z"/></g>
<g><path style="opacity:1" fill="#e7e7e7" d="M 433.5,435.5 C 433.586,436.496 433.252,437.329 432.5,438C 434.377,441.494 435.044,445.327 434.5,449.5C 429.5,449.5 424.5,449.5 419.5,449.5C 419.666,454.179 419.499,458.845 419,463.5C 414.263,464.469 409.43,464.803 404.5,464.5C 404.5,469.5 404.5,474.5 404.5,479.5C 399.5,479.5 394.5,479.5 389.5,479.5C 389.5,474.5 389.5,469.5 389.5,464.5C 384.821,464.666 380.155,464.499 375.5,464C 374.565,461.619 374.232,459.119 374.5,456.5C 397.348,457.998 417.015,450.998 433.5,435.5 Z"/></g>
<g><path style="opacity:1" fill="#dedede" d="M 107.5,453.5 C 111.615,454.51 115.615,455.51 119.5,456.5C 119.5,459.167 119.5,461.833 119.5,464.5C 114.821,464.666 110.155,464.499 105.5,464C 104.549,460.943 104.216,457.777 104.5,454.5C 105.791,454.737 106.791,454.404 107.5,453.5 Z"/></g>
<g><path style="opacity:1" fill="#fefefe" d="M 119.5,456.5 C 204.5,456.5 289.5,456.5 374.5,456.5C 374.232,459.119 374.565,461.619 375.5,464C 380.155,464.499 384.821,464.666 389.5,464.5C 389.5,469.5 389.5,474.5 389.5,479.5C 384.5,479.5 379.5,479.5 374.5,479.5C 374.5,474.5 374.5,469.5 374.5,464.5C 369.5,464.5 364.5,464.5 359.5,464.5C 359.5,462.167 359.5,459.833 359.5,457.5C 354.5,457.5 349.5,457.5 344.5,457.5C 344.756,459.792 344.423,461.959 343.5,464C 338.845,464.499 334.179,464.666 329.5,464.5C 329.5,469.5 329.5,474.5 329.5,479.5C 324.5,479.5 319.5,479.5 314.5,479.5C 314.5,474.5 314.5,469.5 314.5,464.5C 319.179,464.666 323.845,464.499 328.5,464C 329.423,461.959 329.756,459.792 329.5,457.5C 324.5,457.5 319.5,457.5 314.5,457.5C 314.756,459.792 314.423,461.959 313.5,464C 308.845,464.499 304.179,464.666 299.5,464.5C 299.5,469.5 299.5,474.5 299.5,479.5C 294.5,479.5 289.5,479.5 284.5,479.5C 284.5,474.5 284.5,469.5 284.5,464.5C 289.179,464.666 293.845,464.499 298.5,464C 299.423,461.959 299.756,459.792 299.5,457.5C 294.5,457.5 289.5,457.5 284.5,457.5C 284.756,459.792 284.423,461.959 283.5,464C 278.845,464.499 274.179,464.666 269.5,464.5C 269.5,469.5 269.5,474.5 269.5,479.5C 264.5,479.5 259.5,479.5 254.5,479.5C 254.5,474.5 254.5,469.5 254.5,464.5C 249.5,464.5 244.5,464.5 239.5,464.5C 239.5,462.167 239.5,459.833 239.5,457.5C 234.5,457.5 229.5,457.5 224.5,457.5C 224.756,459.792 224.423,461.959 223.5,464C 218.845,464.499 214.179,464.666 209.5,464.5C 209.5,469.5 209.5,474.5 209.5,479.5C 204.5,479.5 199.5,479.5 194.5,479.5C 194.5,474.5 194.5,469.5 194.5,464.5C 199.179,464.666 203.845,464.499 208.5,464C 209.423,461.959 209.756,459.792 209.5,457.5C 204.5,457.5 199.5,457.5 194.5,457.5C 194.756,459.792 194.423,461.959 193.5,464C 188.845,464.499 184.179,464.666 179.5,464.5C 179.5,469.5 179.5,474.5 179.5,479.5C 174.5,479.5 169.5,479.5 164.5,479.5C 164.5,474.5 164.5,469.5 164.5,464.5C 169.179,464.666 173.845,464.499 178.5,464C 179.423,461.959 179.756,459.792 179.5,457.5C 174.5,457.5 169.5,457.5 164.5,457.5C 164.756,459.792 164.423,461.959 163.5,464C 158.845,464.499 154.179,464.666 149.5,464.5C 149.5,469.5 149.5,474.5 149.5,479.5C 144.5,479.5 139.5,479.5 134.5,479.5C 134.5,474.5 134.5,469.5 134.5,464.5C 129.5,464.5 124.5,464.5 119.5,464.5C 119.5,461.833 119.5,459.167 119.5,456.5 Z"/></g>
<g><path style="opacity:1" fill="#dcdcdc" d="M 135.5,457.5 C 140.167,457.5 144.833,457.5 149.5,457.5C 150.751,463.747 148.251,466.08 142,464.5C 135.329,466.003 133.163,463.669 135.5,457.5 Z"/></g>
<g><path style="opacity:1" fill="#dcdcdc" d="M 255.5,457.5 C 260.167,457.5 264.833,457.5 269.5,457.5C 270.751,463.747 268.251,466.08 262,464.5C 255.329,466.003 253.163,463.669 255.5,457.5 Z"/></g>
<g><path style="opacity:1" fill="#dddddd" d="M -0.5,464.5 C 4.5,464.5 9.5,464.5 14.5,464.5C 14.5,469.5 14.5,474.5 14.5,479.5C 9.5,479.5 4.5,479.5 -0.5,479.5C -0.5,474.5 -0.5,469.5 -0.5,464.5 Z"/></g>
<g><path style="opacity:1" fill="#dddddd" d="M 44.5,449.5 C 49.5,449.5 54.5,449.5 59.5,449.5C 59.8025,454.43 59.4692,459.263 58.5,464C 53.8452,464.499 49.1785,464.666 44.5,464.5C 44.5,469.5 44.5,474.5 44.5,479.5C 39.5,479.5 34.5,479.5 29.5,479.5C 29.5,474.5 29.5,469.5 29.5,464.5C 34.43,464.803 39.2633,464.469 44,463.5C 44.4992,458.845 44.6658,454.179 44.5,449.5 Z"/></g>
<g><path style="opacity:1" fill="#dddddd" d="M 74.5,479.5 C 69.5,479.5 64.5,479.5 59.5,479.5C 59.5,474.5 59.5,469.5 59.5,464.5C 64.5,464.5 69.5,464.5 74.5,464.5C 74.5,469.5 74.5,474.5 74.5,479.5 Z"/></g>
<g><path style="opacity:1" fill="#dddddd" d="M 119.5,464.5 C 124.5,464.5 129.5,464.5 134.5,464.5C 134.5,469.5 134.5,474.5 134.5,479.5C 129.5,479.5 124.5,479.5 119.5,479.5C 119.5,474.5 119.5,469.5 119.5,464.5 Z"/></g>
<g><path style="opacity:1" fill="#dddddd" d="M 164.5,479.5 C 159.5,479.5 154.5,479.5 149.5,479.5C 149.5,474.5 149.5,469.5 149.5,464.5C 154.179,464.666 158.845,464.499 163.5,464C 164.423,461.959 164.756,459.792 164.5,457.5C 169.5,457.5 174.5,457.5 179.5,457.5C 179.756,459.792 179.423,461.959 178.5,464C 173.845,464.499 169.179,464.666 164.5,464.5C 164.5,469.5 164.5,474.5 164.5,479.5 Z"/></g>
<g><path style="opacity:1" fill="#dddddd" d="M 194.5,479.5 C 189.5,479.5 184.5,479.5 179.5,479.5C 179.5,474.5 179.5,469.5 179.5,464.5C 184.179,464.666 188.845,464.499 193.5,464C 194.423,461.959 194.756,459.792 194.5,457.5C 199.5,457.5 204.5,457.5 209.5,457.5C 209.756,459.792 209.423,461.959 208.5,464C 203.845,464.499 199.179,464.666 194.5,464.5C 194.5,469.5 194.5,474.5 194.5,479.5 Z"/></g>
<g><path style="opacity:1" fill="#fefefe" d="M 239.5,464.5 C 239.5,469.5 239.5,474.5 239.5,479.5C 234.5,479.5 229.5,479.5 224.5,479.5C 224.5,474.5 224.5,469.5 224.5,464.5C 229.5,464.5 234.5,464.5 239.5,464.5 Z"/></g>
<g><path style="opacity:1" fill="#dddddd" d="M 239.5,464.5 C 244.5,464.5 249.5,464.5 254.5,464.5C 254.5,469.5 254.5,474.5 254.5,479.5C 249.5,479.5 244.5,479.5 239.5,479.5C 239.5,474.5 239.5,469.5 239.5,464.5 Z"/></g>
<g><path style="opacity:1" fill="#dddddd" d="M 284.5,479.5 C 279.5,479.5 274.5,479.5 269.5,479.5C 269.5,474.5 269.5,469.5 269.5,464.5C 274.179,464.666 278.845,464.499 283.5,464C 284.423,461.959 284.756,459.792 284.5,457.5C 289.5,457.5 294.5,457.5 299.5,457.5C 299.756,459.792 299.423,461.959 298.5,464C 293.845,464.499 289.179,464.666 284.5,464.5C 284.5,469.5 284.5,474.5 284.5,479.5 Z"/></g>
<g><path style="opacity:1" fill="#dddddd" d="M 314.5,479.5 C 309.5,479.5 304.5,479.5 299.5,479.5C 299.5,474.5 299.5,469.5 299.5,464.5C 304.179,464.666 308.845,464.499 313.5,464C 314.423,461.959 314.756,459.792 314.5,457.5C 319.5,457.5 324.5,457.5 329.5,457.5C 329.756,459.792 329.423,461.959 328.5,464C 323.845,464.499 319.179,464.666 314.5,464.5C 314.5,469.5 314.5,474.5 314.5,479.5 Z"/></g>
<g><path style="opacity:1" fill="#fefefe" d="M 359.5,464.5 C 359.5,469.5 359.5,474.5 359.5,479.5C 354.5,479.5 349.5,479.5 344.5,479.5C 344.5,474.5 344.5,469.5 344.5,464.5C 349.5,464.5 354.5,464.5 359.5,464.5 Z"/></g>
<g><path style="opacity:1" fill="#dddddd" d="M 359.5,464.5 C 364.5,464.5 369.5,464.5 374.5,464.5C 374.5,469.5 374.5,474.5 374.5,479.5C 369.5,479.5 364.5,479.5 359.5,479.5C 359.5,474.5 359.5,469.5 359.5,464.5 Z"/></g>
<g><path style="opacity:1" fill="#fefefe" d="M 479.5,434.5 C 479.5,439.5 479.5,444.5 479.5,449.5C 474.5,449.5 469.5,449.5 464.5,449.5C 464.197,454.43 464.531,459.263 465.5,464C 470.155,464.499 474.821,464.666 479.5,464.5C 479.5,469.5 479.5,474.5 479.5,479.5C 474.5,479.5 469.5,479.5 464.5,479.5C 464.666,474.821 464.499,470.155 464,465.5C 459.263,464.531 454.43,464.197 449.5,464.5C 449.5,469.5 449.5,474.5 449.5,479.5C 444.5,479.5 439.5,479.5 434.5,479.5C 434.5,474.5 434.5,469.5 434.5,464.5C 429.5,464.5 424.5,464.5 419.5,464.5C 419.5,469.5 419.5,474.5 419.5,479.5C 414.5,479.5 409.5,479.5 404.5,479.5C 404.5,474.5 404.5,469.5 404.5,464.5C 409.43,464.803 414.263,464.469 419,463.5C 419.499,458.845 419.666,454.179 419.5,449.5C 424.5,449.5 429.5,449.5 434.5,449.5C 434.334,454.179 434.501,458.845 435,463.5C 439.667,464.833 444.333,464.833 449,463.5C 449.499,458.845 449.666,454.179 449.5,449.5C 454.179,449.666 458.845,449.499 463.5,449C 464.833,444.333 464.833,439.667 463.5,435C 458.845,434.501 454.179,434.334 449.5,434.5C 449.5,429.5 449.5,424.5 449.5,419.5C 454.5,419.5 459.5,419.5 464.5,419.5C 464.5,424.5 464.5,429.5 464.5,434.5C 469.5,434.5 474.5,434.5 479.5,434.5 Z"/></g>
<g><path style="opacity:1" fill="#dddddd" d="M 434.5,449.5 C 439.5,449.5 444.5,449.5 449.5,449.5C 449.666,454.179 449.499,458.845 449,463.5C 444.333,464.833 439.667,464.833 435,463.5C 434.501,458.845 434.334,454.179 434.5,449.5 Z"/></g>
<g><path style="opacity:1" fill="#dddddd" d="M 434.5,479.5 C 429.5,479.5 424.5,479.5 419.5,479.5C 419.5,474.5 419.5,469.5 419.5,464.5C 424.5,464.5 429.5,464.5 434.5,464.5C 434.5,469.5 434.5,474.5 434.5,479.5 Z"/></g>
<g><path style="opacity:1" fill="#dddddd" d="M 479.5,464.5 C 484.5,464.5 489.5,464.5 494.5,464.5C 494.5,469.5 494.5,474.5 494.5,479.5C 489.5,479.5 484.5,479.5 479.5,479.5C 479.5,474.5 479.5,469.5 479.5,464.5 Z"/></g>
<g><path style="opacity:1" fill="#dddddd" d="M 104.5,479.5 C 99.5,479.5 94.5,479.5 89.5,479.5C 89.5,474.5 89.5,469.5 89.5,464.5C 94.43,464.197 99.2633,464.531 104,465.5C 104.499,470.155 104.666,474.821 104.5,479.5 Z"/></g>
<g><path style="opacity:1" fill="#dddddd" d="M 239.5,464.5 C 234.5,464.5 229.5,464.5 224.5,464.5C 224.5,469.5 224.5,474.5 224.5,479.5C 219.5,479.5 214.5,479.5 209.5,479.5C 209.5,474.5 209.5,469.5 209.5,464.5C 214.179,464.666 218.845,464.499 223.5,464C 224.423,461.959 224.756,459.792 224.5,457.5C 229.5,457.5 234.5,457.5 239.5,457.5C 239.5,459.833 239.5,462.167 239.5,464.5 Z"/></g>
<g><path style="opacity:1" fill="#dddddd" d="M 359.5,464.5 C 354.5,464.5 349.5,464.5 344.5,464.5C 344.5,469.5 344.5,474.5 344.5,479.5C 339.5,479.5 334.5,479.5 329.5,479.5C 329.5,474.5 329.5,469.5 329.5,464.5C 334.179,464.666 338.845,464.499 343.5,464C 344.423,461.959 344.756,459.792 344.5,457.5C 349.5,457.5 354.5,457.5 359.5,457.5C 359.5,459.833 359.5,462.167 359.5,464.5 Z"/></g>
<g><path style="opacity:1" fill="#dddddd" d="M 464.5,479.5 C 459.5,479.5 454.5,479.5 449.5,479.5C 449.5,474.5 449.5,469.5 449.5,464.5C 454.43,464.197 459.263,464.531 464,465.5C 464.499,470.155 464.666,474.821 464.5,479.5 Z"/></g>
<g><path style="opacity:1" fill="#fefefe" d="M -0.5,479.5 C 4.5,479.5 9.5,479.5 14.5,479.5C 14.5,484.5 14.5,489.5 14.5,494.5C 9.5,494.5 4.5,494.5 -0.5,494.5C -0.5,489.5 -0.5,484.5 -0.5,479.5 Z"/></g>
<g><path style="opacity:1" fill="#dddddd" d="M 14.5,479.5 C 19.5,479.5 24.5,479.5 29.5,479.5C 29.5,484.5 29.5,489.5 29.5,494.5C 24.5,494.5 19.5,494.5 14.5,494.5C 14.5,489.5 14.5,484.5 14.5,479.5 Z"/></g>
<g><path style="opacity:1" fill="#dddddd" d="M -0.5,494.5 C 4.5,494.5 9.5,494.5 14.5,494.5C 14.5,499.5 14.5,504.5 14.5,509.5C 9.5,509.5 4.5,509.5 -0.5,509.5C -0.5,504.5 -0.5,499.5 -0.5,494.5 Z"/></g>
<g><path style="opacity:1" fill="#fdfdfd" d="M 509.5,-0.5 C 510.167,-0.5 510.833,-0.5 511.5,-0.5C 511.5,170.167 511.5,340.833 511.5,511.5C 490.833,511.5 470.167,511.5 449.5,511.5C 449.5,510.833 449.5,510.167 449.5,509.5C 444.5,509.5 439.5,509.5 434.5,509.5C 434.666,504.821 434.499,500.155 434,495.5C 429.333,494.167 424.667,494.167 420,495.5C 419.501,500.155 419.334,504.821 419.5,509.5C 414.821,509.666 410.155,509.499 405.5,509C 404.697,504.586 404.197,500.086 404,495.5C 399.333,494.167 394.667,494.167 390,495.5C 389.501,500.155 389.334,504.821 389.5,509.5C 384.821,509.334 380.155,509.501 375.5,510C 374.944,510.383 374.611,510.883 374.5,511.5C 359.5,511.5 344.5,511.5 329.5,511.5C 329.5,510.833 329.5,510.167 329.5,509.5C 324.5,509.5 319.5,509.5 314.5,509.5C 314.666,504.821 314.499,500.155 314,495.5C 309.333,494.167 304.667,494.167 300,495.5C 299.501,500.155 299.334,504.821 299.5,509.5C 294.821,509.666 290.155,509.499 285.5,509C 284.697,504.586 284.197,500.086 284,495.5C 279.333,494.167 274.667,494.167 270,495.5C 269.501,500.155 269.334,504.821 269.5,509.5C 264.821,509.334 260.155,509.501 255.5,510C 254.944,510.383 254.611,510.883 254.5,511.5C 239.5,511.5 224.5,511.5 209.5,511.5C 209.5,510.833 209.5,510.167 209.5,509.5C 204.5,509.5 199.5,509.5 194.5,509.5C 194.666,504.821 194.499,500.155 194,495.5C 189.333,494.167 184.667,494.167 180,495.5C 179.501,500.155 179.334,504.821 179.5,509.5C 174.821,509.666 170.155,509.499 165.5,509C 164.697,504.586 164.197,500.086 164,495.5C 159.333,494.167 154.667,494.167 150,495.5C 149.501,500.155 149.334,504.821 149.5,509.5C 144.821,509.334 140.155,509.501 135.5,510C 134.944,510.383 134.611,510.883 134.5,511.5C 119.5,511.5 104.5,511.5 89.5,511.5C 89.5,510.833 89.5,510.167 89.5,509.5C 84.5,509.5 79.5,509.5 74.5,509.5C 74.6658,504.821 74.4992,500.155 74,495.5C 69.3333,494.167 64.6667,494.167 60,495.5C 59.5008,500.155 59.3342,504.821 59.5,509.5C 54.8215,509.666 50.1548,509.499 45.5,509C 44.6971,504.586 44.1971,500.086 44,495.5C 39.3333,494.167 34.6667,494.167 30,495.5C 29.5008,500.155 29.3342,504.821 29.5,509.5C 24.8215,509.334 20.1548,509.501 15.5,510C 14.944,510.383 14.6107,510.883 14.5,511.5C 9.5,511.5 4.5,511.5 -0.5,511.5C -0.5,510.833 -0.5,510.167 -0.5,509.5C 4.5,509.5 9.5,509.5 14.5,509.5C 14.5,504.5 14.5,499.5 14.5,494.5C 19.5,494.5 24.5,494.5 29.5,494.5C 29.5,489.5 29.5,484.5 29.5,479.5C 34.5,479.5 39.5,479.5 44.5,479.5C 44.5,484.5 44.5,489.5 44.5,494.5C 49.5,494.5 54.5,494.5 59.5,494.5C 59.5,489.5 59.5,484.5 59.5,479.5C 64.5,479.5 69.5,479.5 74.5,479.5C 74.1734,484.214 74.5067,488.88 75.5,493.5C 80.1001,494.443 84.7668,494.777 89.5,494.5C 89.5,489.5 89.5,484.5 89.5,479.5C 94.5,479.5 99.5,479.5 104.5,479.5C 104.5,484.5 104.5,489.5 104.5,494.5C 109.5,494.5 114.5,494.5 119.5,494.5C 119.5,499.5 119.5,504.5 119.5,509.5C 124.5,509.5 129.5,509.5 134.5,509.5C 134.5,504.5 134.5,499.5 134.5,494.5C 139.5,494.5 144.5,494.5 149.5,494.5C 149.5,489.5 149.5,484.5 149.5,479.5C 154.5,479.5 159.5,479.5 164.5,479.5C 164.5,484.5 164.5,489.5 164.5,494.5C 169.5,494.5 174.5,494.5 179.5,494.5C 179.5,489.5 179.5,484.5 179.5,479.5C 184.5,479.5 189.5,479.5 194.5,479.5C 194.173,484.214 194.507,488.88 195.5,493.5C 200.1,494.443 204.767,494.777 209.5,494.5C 209.5,489.5 209.5,484.5 209.5,479.5C 214.5,479.5 219.5,479.5 224.5,479.5C 224.5,484.5 224.5,489.5 224.5,494.5C 229.5,494.5 234.5,494.5 239.5,494.5C 239.5,499.5 239.5,504.5 239.5,509.5C 244.5,509.5 249.5,509.5 254.5,509.5C 254.5,504.5 254.5,499.5 254.5,494.5C 259.5,494.5 264.5,494.5 269.5,494.5C 269.5,489.5 269.5,484.5 269.5,479.5C 274.5,479.5 279.5,479.5 284.5,479.5C 284.5,484.5 284.5,489.5 284.5,494.5C 289.5,494.5 294.5,494.5 299.5,494.5C 299.5,489.5 299.5,484.5 299.5,479.5C 304.5,479.5 309.5,479.5 314.5,479.5C 314.173,484.214 314.507,488.88 315.5,493.5C 320.1,494.443 324.767,494.777 329.5,494.5C 329.5,489.5 329.5,484.5 329.5,479.5C 334.5,479.5 339.5,479.5 344.5,479.5C 344.5,484.5 344.5,489.5 344.5,494.5C 349.5,494.5 354.5,494.5 359.5,494.5C 359.5,499.5 359.5,504.5 359.5,509.5C 364.5,509.5 369.5,509.5 374.5,509.5C 374.5,504.5 374.5,499.5 374.5,494.5C 379.5,494.5 384.5,494.5 389.5,494.5C 389.5,489.5 389.5,484.5 389.5,479.5C 394.5,479.5 399.5,479.5 404.5,479.5C 404.5,484.5 404.5,489.5 404.5,494.5C 409.5,494.5 414.5,494.5 419.5,494.5C 419.5,489.5 419.5,484.5 419.5,479.5C 424.5,479.5 429.5,479.5 434.5,479.5C 434.173,484.214 434.507,488.88 435.5,493.5C 440.1,494.443 444.767,494.777 449.5,494.5C 449.5,489.5 449.5,484.5 449.5,479.5C 454.5,479.5 459.5,479.5 464.5,479.5C 464.5,484.5 464.5,489.5 464.5,494.5C 469.5,494.5 474.5,494.5 479.5,494.5C 479.5,499.5 479.5,504.5 479.5,509.5C 484.5,509.5 489.5,509.5 494.5,509.5C 494.5,504.5 494.5,499.5 494.5,494.5C 499.5,494.5 504.5,494.5 509.5,494.5C 509.5,489.5 509.5,484.5 509.5,479.5C 504.5,479.5 499.5,479.5 494.5,479.5C 494.5,474.5 494.5,469.5 494.5,464.5C 489.5,464.5 484.5,464.5 479.5,464.5C 479.5,459.5 479.5,454.5 479.5,449.5C 484.5,449.5 489.5,449.5 494.5,449.5C 494.5,444.5 494.5,439.5 494.5,434.5C 489.5,434.5 484.5,434.5 479.5,434.5C 479.5,429.5 479.5,424.5 479.5,419.5C 484.5,419.5 489.5,419.5 494.5,419.5C 494.5,414.5 494.5,409.5 494.5,404.5C 489.5,404.5 484.5,404.5 479.5,404.5C 479.5,399.5 479.5,394.5 479.5,389.5C 484.5,389.5 489.5,389.5 494.5,389.5C 494.5,384.5 494.5,379.5 494.5,374.5C 499.5,374.5 504.5,374.5 509.5,374.5C 509.5,369.5 509.5,364.5 509.5,359.5C 504.5,359.5 499.5,359.5 494.5,359.5C 494.5,354.5 494.5,349.5 494.5,344.5C 489.5,344.5 484.5,344.5 479.5,344.5C 479.5,339.5 479.5,334.5 479.5,329.5C 484.5,329.5 489.5,329.5 494.5,329.5C 494.5,324.5 494.5,319.5 494.5,314.5C 489.5,314.5 484.5,314.5 479.5,314.5C 479.5,309.5 479.5,304.5 479.5,299.5C 484.5,299.5 489.5,299.5 494.5,299.5C 494.5,294.5 494.5,289.5 494.5,284.5C 489.5,284.5 484.5,284.5 479.5,284.5C 479.5,279.5 479.5,274.5 479.5,269.5C 484.5,269.5 489.5,269.5 494.5,269.5C 494.5,264.5 494.5,259.5 494.5,254.5C 499.5,254.5 504.5,254.5 509.5,254.5C 509.5,249.5 509.5,244.5 509.5,239.5C 504.5,239.5 499.5,239.5 494.5,239.5C 494.5,234.5 494.5,229.5 494.5,224.5C 489.5,224.5 484.5,224.5 479.5,224.5C 479.5,219.5 479.5,214.5 479.5,209.5C 484.5,209.5 489.5,209.5 494.5,209.5C 494.5,204.5 494.5,199.5 494.5,194.5C 489.5,194.5 484.5,194.5 479.5,194.5C 479.5,189.5 479.5,184.5 479.5,179.5C 484.5,179.5 489.5,179.5 494.5,179.5C 494.5,174.5 494.5,169.5 494.5,164.5C 489.5,164.5 484.5,164.5 479.5,164.5C 479.5,159.5 479.5,154.5 479.5,149.5C 484.5,149.5 489.5,149.5 494.5,149.5C 494.5,144.5 494.5,139.5 494.5,134.5C 499.5,134.5 504.5,134.5 509.5,134.5C 509.5,129.5 509.5,124.5 509.5,119.5C 504.5,119.5 499.5,119.5 494.5,119.5C 494.5,114.5 494.5,109.5 494.5,104.5C 489.5,104.5 484.5,104.5 479.5,104.5C 479.5,99.5 479.5,94.5 479.5,89.5C 484.5,89.5 489.5,89.5 494.5,89.5C 494.5,84.5 494.5,79.5 494.5,74.5C 489.5,74.5 484.5,74.5 479.5,74.5C 479.5,69.5 479.5,64.5 479.5,59.5C 484.5,59.5 489.5,59.5 494.5,59.5C 494.5,54.5 494.5,49.5 494.5,44.5C 489.5,44.5 484.5,44.5 479.5,44.5C 479.5,39.5 479.5,34.5 479.5,29.5C 484.5,29.5 489.5,29.5 494.5,29.5C 494.5,24.5 494.5,19.5 494.5,14.5C 499.5,14.5 504.5,14.5 509.5,14.5C 509.5,9.5 509.5,4.5 509.5,-0.5 Z"/></g>
<g><path style="opacity:1" fill="#dddddd" d="M 359.5,494.5 C 364.5,494.5 369.5,494.5 374.5,494.5C 374.5,499.5 374.5,504.5 374.5,509.5C 369.5,509.5 364.5,509.5 359.5,509.5C 359.5,504.5 359.5,499.5 359.5,494.5 Z"/></g>
<g><path style="opacity:1" fill="#dddddd" d="M 329.5,509.5 C 329.334,504.821 329.501,500.155 330,495.5C 334.413,494.368 338.913,494.201 343.5,495C 344.632,499.413 344.799,503.913 344,508.5C 339.263,509.469 334.43,509.803 329.5,509.5 Z"/></g>
<g><path style="opacity:1" fill="#dddddd" d="M 239.5,494.5 C 244.5,494.5 249.5,494.5 254.5,494.5C 254.5,499.5 254.5,504.5 254.5,509.5C 249.5,509.5 244.5,509.5 239.5,509.5C 239.5,504.5 239.5,499.5 239.5,494.5 Z"/></g>
<g><path style="opacity:1" fill="#dddddd" d="M 209.5,509.5 C 209.334,504.821 209.501,500.155 210,495.5C 214.413,494.368 218.913,494.201 223.5,495C 224.632,499.413 224.799,503.913 224,508.5C 219.263,509.469 214.43,509.803 209.5,509.5 Z"/></g>
<g><path style="opacity:1" fill="#dddddd" d="M 119.5,494.5 C 124.5,494.5 129.5,494.5 134.5,494.5C 134.5,499.5 134.5,504.5 134.5,509.5C 129.5,509.5 124.5,509.5 119.5,509.5C 119.5,504.5 119.5,499.5 119.5,494.5 Z"/></g>
<g><path style="opacity:1" fill="#dddddd" d="M 89.5,509.5 C 89.3342,504.821 89.5008,500.155 90,495.5C 94.4132,494.368 98.9132,494.201 103.5,495C 104.632,499.413 104.799,503.913 104,508.5C 99.2633,509.469 94.43,509.803 89.5,509.5 Z"/></g>
<g><path style="opacity:1" fill="#dddddd" d="M 494.5,479.5 C 499.5,479.5 504.5,479.5 509.5,479.5C 509.5,484.5 509.5,489.5 509.5,494.5C 504.5,494.5 499.5,494.5 494.5,494.5C 494.5,489.5 494.5,484.5 494.5,479.5 Z"/></g>
<g><path style="opacity:1" fill="#fefefe" d="M 479.5,479.5 C 484.5,479.5 489.5,479.5 494.5,479.5C 494.5,484.5 494.5,489.5 494.5,494.5C 489.5,494.5 484.5,494.5 479.5,494.5C 479.5,489.5 479.5,484.5 479.5,479.5 Z"/></g>
<g><path style="opacity:1" fill="#dddddd" d="M 464.5,479.5 C 469.5,479.5 474.5,479.5 479.5,479.5C 479.5,484.5 479.5,489.5 479.5,494.5C 474.5,494.5 469.5,494.5 464.5,494.5C 464.5,489.5 464.5,484.5 464.5,479.5 Z"/></g>
<g><path style="opacity:1" fill="#dddddd" d="M 434.5,479.5 C 439.5,479.5 444.5,479.5 449.5,479.5C 449.5,484.5 449.5,489.5 449.5,494.5C 444.767,494.777 440.1,494.443 435.5,493.5C 434.507,488.88 434.173,484.214 434.5,479.5 Z"/></g>
<g><path style="opacity:1" fill="#dddddd" d="M 404.5,479.5 C 409.5,479.5 414.5,479.5 419.5,479.5C 419.5,484.5 419.5,489.5 419.5,494.5C 414.5,494.5 409.5,494.5 404.5,494.5C 404.5,489.5 404.5,484.5 404.5,479.5 Z"/></g>
<g><path style="opacity:1" fill="#dddddd" d="M 374.5,479.5 C 379.5,479.5 384.5,479.5 389.5,479.5C 389.5,484.5 389.5,489.5 389.5,494.5C 384.5,494.5 379.5,494.5 374.5,494.5C 374.5,489.5 374.5,484.5 374.5,479.5 Z"/></g>
<g><path style="opacity:1" fill="#fefefe" d="M 359.5,479.5 C 364.5,479.5 369.5,479.5 374.5,479.5C 374.5,484.5 374.5,489.5 374.5,494.5C 369.5,494.5 364.5,494.5 359.5,494.5C 359.5,489.5 359.5,484.5 359.5,479.5 Z"/></g>
<g><path style="opacity:1" fill="#dddddd" d="M 344.5,479.5 C 349.5,479.5 354.5,479.5 359.5,479.5C 359.5,484.5 359.5,489.5 359.5,494.5C 354.5,494.5 349.5,494.5 344.5,494.5C 344.5,489.5 344.5,484.5 344.5,479.5 Z"/></g>
<g><path style="opacity:1" fill="#dddddd" d="M 314.5,479.5 C 319.5,479.5 324.5,479.5 329.5,479.5C 329.5,484.5 329.5,489.5 329.5,494.5C 324.767,494.777 320.1,494.443 315.5,493.5C 314.507,488.88 314.173,484.214 314.5,479.5 Z"/></g>
<g><path style="opacity:1" fill="#dddddd" d="M 284.5,479.5 C 289.5,479.5 294.5,479.5 299.5,479.5C 299.5,484.5 299.5,489.5 299.5,494.5C 294.5,494.5 289.5,494.5 284.5,494.5C 284.5,489.5 284.5,484.5 284.5,479.5 Z"/></g>
<g><path style="opacity:1" fill="#dddddd" d="M 254.5,479.5 C 259.5,479.5 264.5,479.5 269.5,479.5C 269.5,484.5 269.5,489.5 269.5,494.5C 264.5,494.5 259.5,494.5 254.5,494.5C 254.5,489.5 254.5,484.5 254.5,479.5 Z"/></g>
<g><path style="opacity:1" fill="#fefefe" d="M 239.5,479.5 C 244.5,479.5 249.5,479.5 254.5,479.5C 254.5,484.5 254.5,489.5 254.5,494.5C 249.5,494.5 244.5,494.5 239.5,494.5C 239.5,489.5 239.5,484.5 239.5,479.5 Z"/></g>
<g><path style="opacity:1" fill="#dddddd" d="M 224.5,479.5 C 229.5,479.5 234.5,479.5 239.5,479.5C 239.5,484.5 239.5,489.5 239.5,494.5C 234.5,494.5 229.5,494.5 224.5,494.5C 224.5,489.5 224.5,484.5 224.5,479.5 Z"/></g>
<g><path style="opacity:1" fill="#dddddd" d="M 194.5,479.5 C 199.5,479.5 204.5,479.5 209.5,479.5C 209.5,484.5 209.5,489.5 209.5,494.5C 204.767,494.777 200.1,494.443 195.5,493.5C 194.507,488.88 194.173,484.214 194.5,479.5 Z"/></g>
<g><path style="opacity:1" fill="#dddddd" d="M 164.5,479.5 C 169.5,479.5 174.5,479.5 179.5,479.5C 179.5,484.5 179.5,489.5 179.5,494.5C 174.5,494.5 169.5,494.5 164.5,494.5C 164.5,489.5 164.5,484.5 164.5,479.5 Z"/></g>
<g><path style="opacity:1" fill="#dddddd" d="M 134.5,479.5 C 139.5,479.5 144.5,479.5 149.5,479.5C 149.5,484.5 149.5,489.5 149.5,494.5C 144.5,494.5 139.5,494.5 134.5,494.5C 134.5,489.5 134.5,484.5 134.5,479.5 Z"/></g>
<g><path style="opacity:1" fill="#fefefe" d="M 119.5,479.5 C 124.5,479.5 129.5,479.5 134.5,479.5C 134.5,484.5 134.5,489.5 134.5,494.5C 129.5,494.5 124.5,494.5 119.5,494.5C 119.5,489.5 119.5,484.5 119.5,479.5 Z"/></g>
<g><path style="opacity:1" fill="#dddddd" d="M 104.5,479.5 C 109.5,479.5 114.5,479.5 119.5,479.5C 119.5,484.5 119.5,489.5 119.5,494.5C 114.5,494.5 109.5,494.5 104.5,494.5C 104.5,489.5 104.5,484.5 104.5,479.5 Z"/></g>
<g><path style="opacity:1" fill="#dddddd" d="M 74.5,479.5 C 79.5,479.5 84.5,479.5 89.5,479.5C 89.5,484.5 89.5,489.5 89.5,494.5C 84.7668,494.777 80.1001,494.443 75.5,493.5C 74.5067,488.88 74.1734,484.214 74.5,479.5 Z"/></g>
<g><path style="opacity:1" fill="#dddddd" d="M 44.5,479.5 C 49.5,479.5 54.5,479.5 59.5,479.5C 59.5,484.5 59.5,489.5 59.5,494.5C 54.5,494.5 49.5,494.5 44.5,494.5C 44.5,489.5 44.5,484.5 44.5,479.5 Z"/></g>
<g><path style="opacity:1" fill="#dddddd" d="M 495.5,449.5 C 500.167,449.5 504.833,449.5 509.5,449.5C 509.666,454.179 509.499,458.845 509,463.5C 504.333,464.833 499.667,464.833 495,463.5C 494.227,458.748 494.393,454.081 495.5,449.5 Z"/></g>
<g><path style="opacity:1" fill="#dddddd" d="M 494.5,419.5 C 499.5,419.5 504.5,419.5 509.5,419.5C 509.5,424.5 509.5,429.5 509.5,434.5C 504.821,434.666 500.155,434.499 495.5,434C 494.531,429.263 494.197,424.43 494.5,419.5 Z"/></g>
<g><path style="opacity:1" fill="#dddddd" d="M 495.5,389.5 C 500.167,389.5 504.833,389.5 509.5,389.5C 509.5,394.5 509.5,399.5 509.5,404.5C 504.57,404.803 499.737,404.469 495,403.5C 494.227,398.748 494.393,394.081 495.5,389.5 Z"/></g>
<g><path style="opacity:1" fill="#dddddd" d="M 495.5,329.5 C 500.167,329.5 504.833,329.5 509.5,329.5C 509.666,334.179 509.499,338.845 509,343.5C 504.333,344.833 499.667,344.833 495,343.5C 494.227,338.748 494.393,334.081 495.5,329.5 Z"/></g>
<g><path style="opacity:1" fill="#dddddd" d="M 494.5,299.5 C 499.5,299.5 504.5,299.5 509.5,299.5C 509.5,304.5 509.5,309.5 509.5,314.5C 504.821,314.666 500.155,314.499 495.5,314C 494.531,309.263 494.197,304.43 494.5,299.5 Z"/></g>
<g><path style="opacity:1" fill="#dddddd" d="M 495.5,269.5 C 500.167,269.5 504.833,269.5 509.5,269.5C 509.5,274.5 509.5,279.5 509.5,284.5C 504.57,284.803 499.737,284.469 495,283.5C 494.227,278.748 494.393,274.081 495.5,269.5 Z"/></g>
<g><path style="opacity:1" fill="#dddddd" d="M 495.5,209.5 C 500.167,209.5 504.833,209.5 509.5,209.5C 509.666,214.179 509.499,218.845 509,223.5C 504.333,224.833 499.667,224.833 495,223.5C 494.227,218.748 494.393,214.081 495.5,209.5 Z"/></g>
<g><path style="opacity:1" fill="#dddddd" d="M 494.5,179.5 C 499.5,179.5 504.5,179.5 509.5,179.5C 509.5,184.5 509.5,189.5 509.5,194.5C 504.821,194.666 500.155,194.499 495.5,194C 494.531,189.263 494.197,184.43 494.5,179.5 Z"/></g>
<g><path style="opacity:1" fill="#dddddd" d="M 495.5,149.5 C 500.167,149.5 504.833,149.5 509.5,149.5C 509.5,154.5 509.5,159.5 509.5,164.5C 504.57,164.803 499.737,164.469 495,163.5C 494.227,158.748 494.393,154.081 495.5,149.5 Z"/></g>
<g><path style="opacity:1" fill="#dddddd" d="M 495.5,89.5 C 500.167,89.5 504.833,89.5 509.5,89.5C 509.666,94.1785 509.499,98.8452 509,103.5C 504.333,104.833 499.667,104.833 495,103.5C 494.227,98.7481 494.393,94.0815 495.5,89.5 Z"/></g>
<g><path style="opacity:1" fill="#dddddd" d="M 494.5,59.5 C 499.5,59.5 504.5,59.5 509.5,59.5C 509.5,64.5 509.5,69.5 509.5,74.5C 504.821,74.6658 500.155,74.4992 495.5,74C 494.531,69.2633 494.197,64.43 494.5,59.5 Z"/></g>
<g><path style="opacity:1" fill="#dddddd" d="M 495.5,29.5 C 500.167,29.5 504.833,29.5 509.5,29.5C 509.5,34.5 509.5,39.5 509.5,44.5C 504.57,44.8025 499.737,44.4692 495,43.5C 494.227,38.7481 494.393,34.0815 495.5,29.5 Z"/></g>
<g><path style="opacity:1" fill="#dddddd" d="M 449.5,509.5 C 449.334,504.821 449.501,500.155 450,495.5C 454.413,494.368 458.913,494.201 463.5,495C 464.632,499.413 464.799,503.913 464,508.5C 459.263,509.469 454.43,509.803 449.5,509.5 Z"/></g>
<g><path style="opacity:1" fill="#dddddd" d="M 479.5,494.5 C 484.5,494.5 489.5,494.5 494.5,494.5C 494.5,499.5 494.5,504.5 494.5,509.5C 489.5,509.5 484.5,509.5 479.5,509.5C 479.5,504.5 479.5,499.5 479.5,494.5 Z"/></g>
<g><path style="opacity:1" fill="#e5e5e5" d="M 89.5,509.5 C 89.5,510.167 89.5,510.833 89.5,511.5C 64.5,511.5 39.5,511.5 14.5,511.5C 14.6107,510.883 14.944,510.383 15.5,510C 20.1548,509.501 24.8215,509.334 29.5,509.5C 29.3342,504.821 29.5008,500.155 30,495.5C 34.6667,494.167 39.3333,494.167 44,495.5C 44.1971,500.086 44.6971,504.586 45.5,509C 50.1548,509.499 54.8215,509.666 59.5,509.5C 59.3342,504.821 59.5008,500.155 60,495.5C 64.6667,494.167 69.3333,494.167 74,495.5C 74.4992,500.155 74.6658,504.821 74.5,509.5C 79.5,509.5 84.5,509.5 89.5,509.5 Z"/></g>
<g><path style="opacity:1" fill="#e5e5e5" d="M 209.5,509.5 C 209.5,510.167 209.5,510.833 209.5,511.5C 184.5,511.5 159.5,511.5 134.5,511.5C 134.611,510.883 134.944,510.383 135.5,510C 140.155,509.501 144.821,509.334 149.5,509.5C 149.334,504.821 149.501,500.155 150,495.5C 154.667,494.167 159.333,494.167 164,495.5C 164.197,500.086 164.697,504.586 165.5,509C 170.155,509.499 174.821,509.666 179.5,509.5C 179.334,504.821 179.501,500.155 180,495.5C 184.667,494.167 189.333,494.167 194,495.5C 194.499,500.155 194.666,504.821 194.5,509.5C 199.5,509.5 204.5,509.5 209.5,509.5 Z"/></g>
<g><path style="opacity:1" fill="#e5e5e5" d="M 329.5,509.5 C 329.5,510.167 329.5,510.833 329.5,511.5C 304.5,511.5 279.5,511.5 254.5,511.5C 254.611,510.883 254.944,510.383 255.5,510C 260.155,509.501 264.821,509.334 269.5,509.5C 269.334,504.821 269.501,500.155 270,495.5C 274.667,494.167 279.333,494.167 284,495.5C 284.197,500.086 284.697,504.586 285.5,509C 290.155,509.499 294.821,509.666 299.5,509.5C 299.334,504.821 299.501,500.155 300,495.5C 304.667,494.167 309.333,494.167 314,495.5C 314.499,500.155 314.666,504.821 314.5,509.5C 319.5,509.5 324.5,509.5 329.5,509.5 Z"/></g>
<g><path style="opacity:1" fill="#e5e5e5" d="M 449.5,509.5 C 449.5,510.167 449.5,510.833 449.5,511.5C 424.5,511.5 399.5,511.5 374.5,511.5C 374.611,510.883 374.944,510.383 375.5,510C 380.155,509.501 384.821,509.334 389.5,509.5C 389.334,504.821 389.501,500.155 390,495.5C 394.667,494.167 399.333,494.167 404,495.5C 404.197,500.086 404.697,504.586 405.5,509C 410.155,509.499 414.821,509.666 419.5,509.5C 419.334,504.821 419.501,500.155 420,495.5C 424.667,494.167 429.333,494.167 434,495.5C 434.499,500.155 434.666,504.821 434.5,509.5C 439.5,509.5 444.5,509.5 449.5,509.5 Z"/></g>
</svg>
